<svg width="200" height="200" viewBox="0 0 200 200" xmlns="http://www.w3.org/2000/svg" xmlns:xlink="http://www.w3.org/1999/xlink">
  <title>
    Ironing1
  </title>
  <defs>
    <path id="a" d="M175.3 121.8V0H0v121.8h175.3z"/>
  </defs>
  <g transform="translate(12 39)" fill="none" fill-rule="evenodd">
    <mask id="b" fill="#fff">
      <use xlink:href="#a"/>
    </mask>
    <path d="M93.8 92.3c5.7 0 10.3-4.6 10.3-10.3 0-5.7-4-10.3-10-10.3S84 76.3 84 82c0 5.7 4.6 10.3 10.3 10.3zm66 14h-144c2-24 14.8-49 59-49h85v49zM167.6 0h-125c-4.4 0-8 3.5-8 7.7 0 4.3 3.6 7.8 8 7.8h117.2v26.2h-85C50 41.7 31 48.7 18 62.5 6.2 75 0 92.7 0 114c0 4.3 3.5 7.8 7.7 7.8h160c4 0 7.6-3.5 7.6-7.8V7.7c0-4.2-3.5-7.7-7.7-7.7zM60.4 71.7C54.7 71.7 50 76.3 50 82c0 5.7 4.7 10.3 10.4 10.3S70.8 87.7 70.8 82c0-5.7-4.7-10.3-10.4-10.3zm66.8 20.6c5.7 0 10.3-4.6 10.3-10.3 0-5.7-4.6-10.3-10.3-10.3-5.7 0-10.3 4.6-10.3 10.3 0 5.7 4 10.3 10 10.3z" fill="#221F20" mask="url(#b)"/>
  </g>
</svg>
