<svg width="200" height="200" viewBox="0 0 200 200" xmlns="http://www.w3.org/2000/svg">
  <title>
    Ironing4
  </title>
  <path d="M42.5 196.2c1 .4 1.8.5 2.7.5 3 0 6-2 7.3-5l1.7-4.5-16.3 4.4c0 2 2 3.8 4 4.6zM188.2 177l-58-15.5 58-15.5c4-1 6.5-5.3 5.4-9.5-1-4-5.3-6.5-9.4-5.4l-83.8 23-83.7-23c-4-1-8.3 1.7-9.4 5.8-1 4.2 1.3 8.4 5.4 9.5l58 15.6-58 15.4c-4 1-6.5 5.4-5.4 9.6 1 3.3 4 5.6 7.4 5.6.7 0 1.4 0 2-.3l83.7-23 83.8 22.5 2 .2c3.4 0 6.5-2.4 7.4-5.8 1-4.4-1.3-8.6-5.4-9.7zM87.6 61.2h85v49h-144c2-24 14.8-49 59-49zm-67 64.6H61l-4 10.7 15 4 5.5-14.7h46l5.5 14.7 15-4-4-10.7h40.4c4.2 0 7.7-3.5 7.7-7.8V11.7c0-4.2-3-7.7-7-7.7H56c-4.5 0-8 3.5-8 7.7 0 4.3 3.5 7.8 8 7.8h117v26.2H88c-25 0-44 7-57 20.8C19 79 12.7 96.7 12.7 118c0 4.3 3.5 7.8 7.7 7.8zm127.8 66c1.2 3 4 5 7.3 5 1 0 1.8-.2 2.7-.6 2.2-.8 3.8-2.5 4.5-4.6l-17-4.4 1.7 4.5z" fill="#221F20" fill-rule="evenodd"/>
</svg>
