<?xml version="1.0" encoding="UTF-8"?>
<svg width="200px" height="200px" viewBox="0 0 200 200" version="1.1" xmlns="http://www.w3.org/2000/svg" xmlns:xlink="http://www.w3.org/1999/xlink">
    <!-- Generator: Sketch 44.1 (41455) - http://www.bohemiancoding.com/sketch -->
    <title>Ironing5</title>
    <desc>Created with Sketch.</desc>
    <defs></defs>
    <g id="Ironing" stroke="none" stroke-width="1" fill="none" fill-rule="evenodd">
        <g id="Ironing5" fill="#221F20">
            <g id="Page-1" transform="translate(4.000000, 33.000000)">
                <path d="M187.9951,118.6628 L122.7481,80.9908 L187.9951,43.3198 C191.6941,41.1848 192.9611,36.4548 190.8261,32.7568 C188.6911,29.0578 183.9611,27.7908 180.2631,29.9268 L107.2821,72.0618 L34.3031,29.9278 C30.6031,27.7918 25.8731,29.0578 23.7381,32.7578 C23.0351,33.9748 22.7011,35.3058 22.7011,36.6178 C22.7011,39.2898 24.0881,41.8888 26.5681,43.3218 L91.8151,80.9908 L26.5681,118.6628 C24.0881,120.0948 22.7011,122.6938 22.7011,125.3658 C22.7011,126.6788 23.0351,128.0078 23.7381,129.2258 C25.8731,132.9248 30.6031,134.1918 34.3031,132.0568 L107.2821,89.9208 L180.2631,132.0568 C183.9611,134.1918 188.6911,132.9258 190.8261,129.2258 C192.9631,125.5268 191.6941,120.7978 187.9951,118.6628 L187.9951,118.6628 Z M89.2151,106.3058 L62.4271,121.7708 L152.1371,121.7708 L125.3491,106.3058 L89.2151,106.3058 Z M175.2831,105.3708 L175.2831,56.6128 L159.8181,65.5418 L159.8181,96.4408 L175.2831,105.3708 Z M37.6601,106.3058 L15.7881,106.3058 C17.3441,88.2398 24.9391,69.5008 47.4971,61.3568 L31.2301,51.9658 C26.2831,54.8618 21.8571,58.3608 17.9741,62.4698 C6.2151,74.9098 0.0001,92.7418 0.0001,114.0388 C0.0001,118.3088 3.4621,121.7708 7.7321,121.7708 L18.0641,121.7708 C18.9841,118.6208 21.0811,115.8768 23.9911,114.1968 L37.6601,106.3058 Z M91.7831,57.1608 L122.7811,57.1608 L149.5691,41.6938 L74.7531,41.6938 C71.6071,41.6938 68.5531,41.8098 65.5881,42.0378 L91.7831,57.1608 Z M42.4551,15.4658 L159.8181,15.4658 L159.8181,35.7778 L175.2831,26.8488 L175.2831,7.7328 C175.2831,3.4618 171.8211,-0.0002 167.5511,-0.0002 L42.4551,-0.0002 C38.1841,-0.0002 34.7231,3.4618 34.7231,7.7328 C34.7231,12.0028 38.1841,15.4658 42.4551,15.4658 L42.4551,15.4658 Z" id="Fill-1"></path>
            </g>
        </g>
    </g>
</svg>