<?xml version="1.0" encoding="UTF-8"?>
<svg width="200px" height="200px" viewBox="0 0 200 200" version="1.1" xmlns="http://www.w3.org/2000/svg" xmlns:xlink="http://www.w3.org/1999/xlink">
    <!-- Generator: Sketch 44.1 (41455) - http://www.bohemiancoding.com/sketch -->
    <title>Ironing4</title>
    <desc>Created with Sketch.</desc>
    <defs></defs>
    <g id="Ironing" stroke="none" stroke-width="1" fill="none" fill-rule="evenodd">
        <g id="Ironing4" fill="#221F20">
            <g id="Page-1" transform="translate(7.000000, 4.000000)">
                <path d="M35.4848,192.2322 C36.3878,192.5762 37.3168,192.7382 38.2288,192.7382 C41.3488,192.7382 44.2868,190.8362 45.4608,187.7482 L47.1718,183.2412 L30.9468,187.5872 C31.6808,189.6512 33.2768,191.3932 35.4848,192.2322 L35.4848,192.2322 Z M181.1608,172.9952 L123.3258,157.4982 L181.1608,142.0022 C185.2868,140.8962 187.7348,136.6562 186.6298,132.5302 C185.5238,128.4042 181.2818,125.9592 177.1578,127.0622 L93.4468,149.4922 L9.7368,127.0622 C5.6158,125.9612 1.3718,128.4042 0.2648,132.5302 C-0.8392,136.6562 1.6078,140.8962 5.7338,142.0022 L63.5678,157.4982 L5.7338,172.9942 C1.6078,174.1002 -0.8392,178.3402 0.2648,182.4652 C1.1918,185.9212 4.3158,188.1992 7.7298,188.1992 C8.3928,188.1992 9.0668,188.1142 9.7368,187.9342 L93.4468,165.5042 L177.1578,187.9352 C177.8288,188.1152 178.5018,188.2002 179.1648,188.2002 C182.5788,188.2002 185.7038,185.9212 186.6298,182.4662 C187.7348,178.3402 185.2868,174.1012 181.1608,172.9952 L181.1608,172.9952 Z M80.5588,57.1622 L165.6228,57.1622 L165.6228,106.3062 L21.5938,106.3062 C23.6578,82.3312 36.3578,57.1622 80.5588,57.1622 L80.5588,57.1622 Z M13.5388,121.7722 L53.9678,121.7722 L49.8998,132.4862 L64.9168,136.5092 L70.5118,121.7722 L116.3818,121.7722 L121.9778,136.5092 L136.9948,132.4872 L132.9258,121.7722 L173.3568,121.7722 C177.6288,121.7722 181.0898,118.3092 181.0898,114.0402 L181.0898,7.7332 C181.0898,3.4622 177.6288,0.0002 173.3568,0.0002 L48.2608,0.0002 C43.9898,0.0002 40.5288,3.4622 40.5288,7.7332 C40.5288,12.0042 43.9898,15.4662 48.2608,15.4662 L165.6228,15.4662 L165.6228,41.6962 L80.5588,41.6962 C55.9148,41.6962 36.8108,48.6852 23.7808,62.4702 C12.0208,74.9102 5.8048,92.7432 5.8048,114.0402 C5.8048,118.3092 9.2678,121.7722 13.5388,121.7722 L13.5388,121.7722 Z M141.4348,187.7482 C142.6088,190.8362 145.5468,192.7382 148.6658,192.7382 C149.5778,192.7382 150.5058,192.5762 151.4098,192.2322 C153.6168,191.3932 155.2138,189.6522 155.9468,187.5882 L139.7228,183.2422 L141.4348,187.7482 Z" id="Fill-1"></path>
            </g>
        </g>
    </g>
</svg>