<svg width="200" height="200" viewBox="0 0 200 200" xmlns="http://www.w3.org/2000/svg">
  <title>
    Ironing5
  </title>
  <path d="M192 151.7L126.7 114 192 76.3c3.7-2 5-6.8 2.8-10.5-2-3.7-6.8-5-10.5-3l-73 42.3-73-42c-3.7-2-8.4-1-10.6 3-.7 1-1 3-1 4 0 3 1.4 5.7 4 7l65 37.8-65 37.8c-2.6 1.5-4 4-4 6.8 0 1.4.3 2.7 1 4 2.2 3.6 7 5 10.6 3l73-42.4 73 42c3.7 2 8.4 1 10.5-3 2.2-3.6 1-8.3-2.8-10.4zm-98.8-12.4l-26.8 15.5H156l-26.7-15.5h-36zm86-1V89.7l-15.4 9v30.8l15.5 9zm-137.5 1h-22c1.6-18 9.2-36.8 31.8-45L35.2 85c-5 3-9.3 6.4-13.2 10.5C10.2 108 4 125.7 4 147c0 4.3 3.5 7.8 7.7 7.8H22c1-3.2 3-6 6-7.6l13.7-8zm54-49h31l27-15.6h-75c-3 0-6 0-9 .3l26 15.2zm-49-42H164v20.4l15.3-9v-19c0-4.3-3.5-7.8-7.7-7.8h-125c-4.4 0-8 3-8 7s3.6 8 8 8z" fill="#221F20" fill-rule="evenodd"/>
</svg>
