<?xml version="1.0" encoding="UTF-8"?>
<svg width="200px" height="200px" viewBox="0 0 200 200" version="1.1" xmlns="http://www.w3.org/2000/svg" xmlns:xlink="http://www.w3.org/1999/xlink">
    <!-- Generator: Sketch 44.1 (41455) - http://www.bohemiancoding.com/sketch -->
    <title>Ironing1</title>
    <desc>Created with Sketch.</desc>
    <defs>
        <polygon id="path-1" points="175.284 121.7705 175.284 0 0.0001 0 0.0001 121.7705 175.284 121.7705"></polygon>
    </defs>
    <g id="Ironing" stroke="none" stroke-width="1" fill="none" fill-rule="evenodd">
        <g id="Ironing1">
            <g id="Page-1" transform="translate(12.000000, 39.000000)">
                <mask id="mask-2" fill="white">
                    <use xlink:href="#path-1"></use>
                </mask>
                <g id="Clip-2"></g>
                <path d="M93.8281,92.3335 C99.5231,92.3335 104.1401,87.7165 104.1401,82.0215 C104.1401,76.3285 99.5231,71.7115 93.8281,71.7115 C88.1341,71.7115 83.5171,76.3285 83.5171,82.0215 C83.5171,87.7165 88.1341,92.3335 93.8281,92.3335 L93.8281,92.3335 Z M159.8181,106.3055 L15.7881,106.3055 C17.8521,82.3295 30.5521,57.1605 74.7531,57.1605 L159.8181,57.1605 L159.8181,106.3055 Z M167.5521,-0.0005 L42.4561,-0.0005 C38.1851,-0.0005 34.7231,3.4615 34.7231,7.7325 C34.7231,12.0035 38.1851,15.4655 42.4561,15.4655 L159.8181,15.4655 L159.8181,41.6945 L74.7531,41.6945 C50.1081,41.6945 31.0051,48.6845 17.9751,62.4695 C6.2151,74.9095 0.0001,92.7415 0.0001,114.0385 C0.0001,118.3095 3.4621,121.7705 7.7331,121.7705 L167.5521,121.7705 C171.8211,121.7705 175.2841,118.3095 175.2841,114.0385 L175.2841,7.7325 C175.2841,3.4615 171.8211,-0.0005 167.5521,-0.0005 L167.5521,-0.0005 Z M60.4401,71.7115 C54.7461,71.7115 50.1301,76.3285 50.1301,82.0215 C50.1301,87.7165 54.7461,92.3335 60.4401,92.3335 C66.1351,92.3335 70.7511,87.7165 70.7511,82.0215 C70.7511,76.3285 66.1351,71.7115 60.4401,71.7115 L60.4401,71.7115 Z M127.2171,92.3335 C132.9111,92.3335 137.5261,87.7165 137.5261,82.0215 C137.5261,76.3285 132.9111,71.7115 127.2171,71.7115 C121.5211,71.7115 116.9051,76.3285 116.9051,82.0215 C116.9051,87.7165 121.5211,92.3335 127.2171,92.3335 L127.2171,92.3335 Z" id="Fill-1" fill="#221F20" mask="url(#mask-2)"></path>
            </g>
        </g>
    </g>
</svg>