<svg width="200" height="200" viewBox="0 0 200 200" xmlns="http://www.w3.org/2000/svg" xmlns:xlink="http://www.w3.org/1999/xlink">
  <title>
    Ironing3
  </title>
  <defs>
    <path id="a" d="M87.6 121.8H0V0h175.3v121.8z"/>
  </defs>
  <g transform="translate(12 39)" fill="none" fill-rule="evenodd">
    <mask id="b" fill="#fff">
      <use xlink:href="#a"/>
    </mask>
    <path d="M159.8 106.3h-144c2-24 14.8-49 59-49h85v49zM167.6 0h-125c-4.4 0-8 3.5-8 7.7 0 4.3 3.6 7.8 8 7.8h117.2v26.2h-85C50 41.7 31 48.7 18 62.5 6.2 75 0 92.7 0 114c0 4.3 3.5 7.8 7.7 7.8h160c4 0 7.6-3.5 7.6-7.8V7.7c0-4.2-3.5-7.7-7.7-7.7zM98.3 91.6c5.7 0 10.3-4.6 10.3-10.3 0-5.7-4.6-10.3-10.3-10.3C92.6 71 88 75.6 88 81.3c0 5.7 4.6 10.3 10.3 10.3z" fill="#221F20" mask="url(#b)"/>
  </g>
</svg>
