<?xml version="1.0" encoding="UTF-8"?>
<svg width="200px" height="200px" viewBox="0 0 200 200" version="1.1" xmlns="http://www.w3.org/2000/svg" xmlns:xlink="http://www.w3.org/1999/xlink">
    <!-- Generator: Sketch 44.1 (41455) - http://www.bohemiancoding.com/sketch -->
    <title>Ironing2</title>
    <desc>Created with Sketch.</desc>
    <defs>
        <polygon id="path-1" points="87.64235 121.771 0 121.771 0 1.42108547e-14 87.64235 1.42108547e-14 175.2847 0 175.2847 121.771"></polygon>
    </defs>
    <g id="Ironing" stroke="none" stroke-width="1" fill="none" fill-rule="evenodd">
        <g id="Ironing2">
            <g id="Page-1" transform="translate(12.000000, 39.000000)">
                <mask id="mask-2" fill="white">
                    <use xlink:href="#path-1"></use>
                </mask>
                <g id="Clip-2"></g>
                <path d="M66.8237,82.022 C66.8237,87.716 71.4397,92.334 77.1347,92.334 C82.8287,92.334 87.4457,87.716 87.4457,82.022 C87.4457,76.329 82.8287,71.711 77.1347,71.711 C71.4397,71.711 66.8237,76.329 66.8237,82.022 L66.8237,82.022 Z M159.8187,106.305 L15.7887,106.305 C17.8527,82.33 30.5527,57.161 74.7537,57.161 L159.8187,57.161 L159.8187,106.305 Z M167.5517,-1.42108547e-14 L42.4557,-1.42108547e-14 C38.1847,-1.42108547e-14 34.7227,3.461 34.7227,7.733 C34.7227,12.003 38.1847,15.466 42.4557,15.466 L159.8187,15.466 L159.8187,41.694 L74.7537,41.694 C50.1087,41.694 31.0057,48.684 17.9747,62.469 C6.2157,74.91 -0.0003,92.742 -0.0003,114.039 C-0.0003,118.309 3.4617,121.771 7.7327,121.771 L167.5517,121.771 C171.8227,121.771 175.2847,118.309 175.2847,114.039 L175.2847,7.733 C175.2847,3.461 171.8227,-1.42108547e-14 167.5517,-1.42108547e-14 L167.5517,-1.42108547e-14 Z M110.5217,92.334 C116.2167,92.334 120.8327,87.716 120.8327,82.022 C120.8327,76.329 116.2167,71.711 110.5217,71.711 C104.8277,71.711 100.2117,76.329 100.2117,82.022 C100.2117,87.716 104.8277,92.334 110.5217,92.334 L110.5217,92.334 Z" id="Fill-1" fill="#221F20" mask="url(#mask-2)"></path>
            </g>
        </g>
    </g>
</svg>