<svg width="200" height="200" viewBox="0 0 200 200" xmlns="http://www.w3.org/2000/svg" xmlns:xlink="http://www.w3.org/1999/xlink">
  <title>
    Washing5
  </title>
  <defs>
    <path id="a" d="M0 130.7h170V0H0z"/>
    <path id="c" d="M0 107.6h170V0H0z"/>
  </defs>
  <g fill="none" fill-rule="evenodd">
    <g transform="translate(15 34)">
      <mask id="b" fill="#fff">
        <use xlink:href="#a"/>
      </mask>
      <path d="M143.8 92H26.4l-6.2-48.3c10.7-1.4 17.2-6.4 22.5-10.5 5.6-4.4 9.6-7.6 18.8-7.6 9 0 13.2 3.2 18.8 7.6 6.2 4.8 14 11 28.4 11 14.4 0 22-6.2 28.3-11 5-3.8 8.5-6.7 15.3-7.4L143.8 92zm19.6-92c-4.3-.5-8 2.5-8.7 6.7l-.4 3.4c-13.5 1-21 7-26.8 11-5.6 5-9.7 8-18.8 8-9.2 0-13.2-3-19-7-6-5-13.8-11-28.2-11C47 10 39.3 16 33 21c-4.6 3.7-8.3 6.6-14.8 7.4L15.4 6.7C15 2.5 11-.5 6.7 0 2.5.7-.5 4.6 0 8.8l12 92c.4 4 3.7 7 7.6 7h131c3.8 0 7-3 7.6-7l12-92c.4-4.2-2.6-8-6.8-8.6zM148 115.3H22.2c-4.3 0-7.8 3.5-7.8 7.8s3.5 8 7.8 8H148c4.2 0 7.7-3 7.7-7s-3.5-7.7-7.7-7.7z" fill="#221F20" mask="url(#b)"/>
    </g>
    <g transform="translate(15 34)">
      <mask id="d" fill="#fff">
        <use xlink:href="#c"/>
      </mask>
      <path d="M85 45.5c-5.5 0-10 4.7-10 10.5-.2 5.5 4.4 10 10 10 5.8 0 10.4-4.6 10.4-10.3 0-5.8-4.6-10.5-10.3-10.5zm33.5 0c-5.7 0-10.4 4.7-10.4 10.4 0 5 5 10 11 10s10-5 10-10c0-6-4.2-11-10-11zM143.8 92H26.4l-6.2-48.3c10.7-1.4 17.2-6.4 22.5-10.5 5.6-4.4 9.6-7.6 18.8-7.6 9 0 13.2 3.2 18.8 7.6 6.2 4.8 14 11 28.4 11 14.4 0 22-6.2 28.3-11 5-3.8 8.5-6.7 15.3-7.4L143.8 92zm19.6-92c-4.3-.5-8 2.5-8.7 6.7l-.4 3.4c-13.5 1-21 7-26.8 11-5.7 5-9.7 8-18.8 8-9.2 0-13.2-3-19-7-6-4.7-13.8-11-28.2-11C47 10 39.3 16.8 33 21c-4.6 3.7-8.3 6.6-14.8 7.4L15.4 6.7C15 2.5 11-.5 6.7 0 2.5.7-.5 4.6 0 8.8l12 92c.4 4 3.7 7 7.6 7h131c3.8 0 7-3 7.6-7l12-92c.4-4.2-2.6-8-6.8-8.6zm-45 68.3c-5.6 0-10.3 4.6-10.3 10.3 0 5.7 5 10.3 11 10.3s10-5 10-11-4.3-10-10-10zm-66.7 0c-5.7 0-10.3 4.6-10.3 10.3C41.4 84.3 46 89 51.7 89 57.4 89 62 84.2 62 78.5s-4.6-10.3-10.3-10.3zm33.4 0c-5 0-10 4.7-10 10.3C75 84.3 80 89 85 89c6 0 10.5-4.7 10.5-10.4S90.8 68.3 85 68.3zM52 45.5c-5.7 0-10.3 4.7-10.3 10.4 0 5 4.5 10 10.2 10 5 0 10-5 10-10 0-6-5-11-11-11z" fill="#221F20" mask="url(#d)"/>
    </g>
  </g>
</svg>
