<svg width="200" height="200" viewBox="0 0 200 200" xmlns="http://www.w3.org/2000/svg">
  <title>
    Washing6
  </title>
  <path d="M133.5 91.5c-5.7 0-10.4 4.7-10.4 10.4 0 5 5 10 11 10s11-5 11-10c0-6-4.3-11-10-11zm25.3 46.6H41.4l-6.2-48c10.8-1 17.2-6 22.5-10 5.6-5 9.6-8 18.8-8 9 0 13.2 3 18.8 8 6.2 5 14 11 28.4 11 14.4 0 22-6 28.3-11 5-4 8.5-6.2 15.3-7l-8.5 66.8zm19.6-92c-4.3 0-8 3-8.7 7l-.4 4c-13.5 1-21 7-26.8 11-5.7 5-9.7 8-18.8 8-9.2 0-13.2-3-19-7.3-6-5-13.8-11-28.2-11C62 56 54.3 62.7 48 67c-4.6 3.7-8.3 6.6-14.8 7.4l-2.8-21.7c-.5-4.2-4.4-7.2-8.7-6.6-4.2 1-7.2 5-6.6 9l12 92c1 4 4 7 8 7h131c4 0 7-3 8-7l12-92c1-4-2-8-7-8zm-61.6 69c-5.7 0-10.4 5-10.4 11s4.6 10 10.4 10 10.2-5 10.2-10.3-4.2-10.3-10-10.3zM77 102c0-5.8-4.6-10.5-10.3-10.5-5.7 0-10.3 4.7-10.3 10.4 0 5 4.6 10 10.3 10 5.7 0 10.3-5 10.3-11zm33.4 0c0-5.8-4.6-10.5-10.3-10.5-5 0-10 4.7-10 10.4 0 5 5 10 11 10s11-5 11-11zm-27 12.3c-5.7 0-10.3 4.6-10.3 10.3 0 5.7 5 10.3 11 10.3s10-5 10-11-4-10-10-10z" fill="#221F20" fill-rule="evenodd"/>
</svg>
