<?xml version="1.0" encoding="UTF-8"?>
<svg width="200px" height="200px" viewBox="0 0 200 200" version="1.1" xmlns="http://www.w3.org/2000/svg" xmlns:xlink="http://www.w3.org/1999/xlink">
    <!-- Generator: Sketch 44.1 (41455) - http://www.bohemiancoding.com/sketch -->
    <title>Washing10</title>
    <desc>Created with Sketch.</desc>
    <defs>
        <polygon id="path-1" points="0.000445426744 130.699 170.130555 130.699 170.130555 4.41832022e-05 0.000445426744 4.41832022e-05"></polygon>
    </defs>
    <g id="Washing" stroke="none" stroke-width="1" fill="none" fill-rule="evenodd">
        <g id="Washing10">
            <g id="Page-1" transform="translate(15.000000, 35.000000)">
                <mask id="mask-2" fill="white">
                    <use xlink:href="#path-1"></use>
                </mask>
                <g id="Clip-2"></g>
                <path d="M143.7525,92.1273 L26.3785,92.1273 L20.1545,43.7043 C30.9485,42.3393 37.3565,37.3253 42.6515,33.1753 C48.2805,28.7643 52.3475,25.5773 61.4745,25.5773 C70.6005,25.5773 74.6675,28.7643 80.2955,33.1743 C86.4865,38.0263 94.1925,44.0643 108.6565,44.0643 C123.1215,44.0643 130.8275,38.0263 137.0185,33.1753 C141.8575,29.3833 145.5445,26.4973 152.2825,25.7623 L143.7525,92.1273 Z M163.3825,0.0643 C159.1435,-0.4817 155.2715,2.5123 154.7275,6.7483 L154.2915,10.1373 C140.8185,10.5503 133.4445,16.3263 127.4785,21.0013 C121.8505,25.4123 117.7835,28.5983 108.6565,28.5983 C99.5305,28.5983 95.4635,25.4123 89.8355,21.0013 C83.6445,16.1493 75.9385,10.1113 61.4745,10.1113 C47.0095,10.1113 39.3035,16.1493 33.1125,21.0013 C28.3545,24.7303 24.7105,27.5843 18.1845,28.3773 L15.4045,6.7493 C14.8595,2.5123 10.9845,-0.4807 6.7485,0.0643 C2.5125,0.6083 -0.4805,4.4843 0.0645,8.7203 L11.9045,100.8463 C12.4015,104.7043 15.6855,107.5933 19.5755,107.5933 L150.5555,107.5933 C154.4445,107.5933 157.7295,104.7043 158.2255,100.8463 L170.0665,8.7203 C170.6115,4.4843 167.6185,0.6083 163.3825,0.0643 L163.3825,0.0643 Z M147.9775,115.2323 L22.1525,115.2323 C17.8825,115.2323 14.4195,118.6953 14.4195,122.9653 C14.4195,127.2363 17.8825,130.6993 22.1525,130.6993 L147.9775,130.6993 C152.2485,130.6993 155.7105,127.2363 155.7105,122.9653 C155.7105,118.6953 152.2485,115.2323 147.9775,115.2323 L147.9775,115.2323 Z" id="Fill-1" fill="#221F20" mask="url(#mask-2)"></path>
            </g>
            <path d="M133.4532,90.8592 C127.7582,90.8592 123.1422,95.4752 123.1422,101.1702 C123.1422,106.8642 127.7582,111.4812 133.4532,111.4812 C139.1472,111.4812 143.7642,106.8642 143.7642,101.1702 C143.7642,95.4752 139.1472,90.8592 133.4532,90.8592 L133.4532,90.8592 Z M100.0652,90.8592 C94.3702,90.8592 89.7542,95.4752 89.7542,101.1702 C89.7542,106.8642 94.3702,111.4812 100.0652,111.4812 C105.7602,111.4812 110.3762,106.8642 110.3762,101.1702 C110.3762,95.4752 105.7602,90.8592 100.0652,90.8592 L100.0652,90.8592 Z M158.7522,127.1282 L41.3772,127.1282 L35.1542,78.7042 C45.9482,77.3392 52.3562,72.3252 57.6522,68.1752 C63.2802,63.7642 67.3472,60.5772 76.4742,60.5772 C85.6002,60.5772 89.6672,63.7642 95.2952,68.1752 C101.4872,73.0272 109.1922,79.0652 123.6562,79.0652 C138.1212,79.0652 145.8272,73.0272 152.0182,68.1752 C156.8572,64.3822 160.5452,61.4972 167.2832,60.7622 L158.7522,127.1282 Z M178.3832,35.0642 C174.1462,34.5182 170.2712,37.5122 169.7272,41.7482 L169.2902,45.1362 C155.8192,45.5502 148.4452,51.3262 142.4782,56.0012 C136.8502,60.4122 132.7832,63.5982 123.6562,63.5982 C114.5302,63.5982 110.4632,60.4122 104.8352,56.0012 C98.6442,51.1492 90.9392,45.1112 76.4742,45.1112 C62.0092,45.1112 54.3032,51.1492 48.1122,56.0012 C43.3542,59.7302 39.7112,62.5842 33.1832,63.3772 L30.4042,41.7492 C29.8592,37.5122 25.9812,34.5182 21.7472,35.0642 C17.5122,35.6092 14.5192,39.4842 15.0642,43.7202 L26.9052,135.8462 C27.4012,139.7042 30.6852,142.5942 34.5752,142.5942 L165.5552,142.5942 C169.4452,142.5942 172.7292,139.7042 173.2252,135.8472 L185.0672,43.7202 C185.6112,39.4842 182.6182,35.6092 178.3832,35.0642 L178.3832,35.0642 Z M66.6782,90.8592 C60.9832,90.8592 56.3672,95.4752 56.3672,101.1702 C56.3672,106.8642 60.9832,111.4812 66.6782,111.4812 C72.3722,111.4812 76.9882,106.8642 76.9882,101.1702 C76.9882,95.4752 72.3722,90.8592 66.6782,90.8592 L66.6782,90.8592 Z" id="Fill-1" fill="#221F20"></path>
        </g>
    </g>
</svg>