<svg width="200" height="200" viewBox="0 0 200 200" xmlns="http://www.w3.org/2000/svg">
  <title>
    Washing1
  </title>
  <path d="M158.8 138H41.4l-6.2-48.3c10.7-1.4 17.2-6.4 22.5-10.5 5.6-4.4 9.6-7.6 18.8-7.6 9 0 13.2 3.2 18.8 7.6 6.2 4.8 14 11 28.4 11 14.4 0 22-6.2 28.3-11 5-3.8 8.5-6.7 15.3-7.4l-8.5 66.3zm19.6-92c-4.3-.5-8 2.5-8.7 6.7l-.4 3.4c-13.5.7-21 6.4-26.8 11-5.6 4.5-9.7 7.7-18.8 7.7-9.2 0-13.2-3.2-19-7.6-6-5-13.8-11-28.2-11C62 56 54.3 62 48 67c-4.6 3.7-8.3 6.6-14.8 7.4l-2.8-21.7c-.5-4.2-4.4-7.2-8.7-6.6-4.2.7-7.2 4.6-6.6 8.8l12 92c.5 4 3.8 7 7.7 7h131c3.8 0 7-3 7.6-7l12-92c.4-4.2-2.6-8-6.8-8.6z" fill="#221F20" fill-rule="evenodd"/>
</svg>
