<svg width="200" height="200" viewBox="0 0 200 200" xmlns="http://www.w3.org/2000/svg">
  <title>
    Washing7
  </title>
  <path d="M116.8 114.3c-5.7 0-10.4 4.6-10.4 10.3 0 5.7 4.7 10.3 10.4 10.3s10.2-5 10.2-11-4.4-11-10-11zm42 23.8H41.4l-6.2-48c10.8-1 17.2-6 22.5-10 5.6-5 9.6-8 18.8-8 9 0 13.2 3 18.8 8 6.2 5 14 11 28.4 11 14.4 0 22-6 28.3-11 5-4 8.5-6.2 15.3-7l-8.5 66.8zm19.6-92c-4.3 0-8 3-8.7 7l-.4 4c-13.5 1-21 7-26.8 11-5.6 5-9.7 8-18.8 8-9.2 0-13.2-3-19-7.3-6-5-13.8-11-28.2-11C62 56 54.3 62 48 67c-4.6 3.7-8.3 6.6-14.8 7.4l-2.8-21.7c-.5-4.2-4.4-7.2-8.7-6.6-4.2 1-7.2 5-6.6 9l12 92c1 4 4 7 8 7h131c4 0 7-3 8-7l12-92c1-4-2-8-7-8zm-61.6 46c-5.7 0-10.4 5-10.4 11s4.6 10 10.4 10 10.2-5 10.2-10c0-5.6-4.5-10.3-10.2-10.3zm-33.4 23c-5.7 0-10.4 5-10.4 10 0 6 5 11 11 11s10-5 10-10.5S89.3 115 83.6 115zm0-23C77.7 92 73 97 73 102s4.7 10.3 10.4 10.3 10.3-4.6 10.3-10.3c0-6-4.7-11-10.3-11z" fill="#221F20" fill-rule="evenodd"/>
</svg>
