<?xml version="1.0" encoding="UTF-8"?>
<svg width="200px" height="200px" viewBox="0 0 200 200" version="1.1" xmlns="http://www.w3.org/2000/svg" xmlns:xlink="http://www.w3.org/1999/xlink">
    <!-- Generator: Sketch 44.1 (41455) - http://www.bohemiancoding.com/sketch -->
    <title>Washing8</title>
    <desc>Created with Sketch.</desc>
    <defs>
        <polygon id="path-1" points="0.000445426744 130.699 170.130555 130.699 170.130555 4.41832022e-05 0.000445426744 4.41832022e-05"></polygon>
    </defs>
    <g id="Washing" stroke="none" stroke-width="1" fill="none" fill-rule="evenodd">
        <g id="Washing8">
            <g id="Page-1" transform="translate(15.000000, 34.000000)">
                <mask id="mask-2" fill="white">
                    <use xlink:href="#path-1"></use>
                </mask>
                <g id="Clip-2"></g>
                <path d="M143.7525,92.1273 L26.3785,92.1273 L20.1545,43.7043 C30.9485,42.3393 37.3565,37.3253 42.6515,33.1753 C48.2805,28.7643 52.3475,25.5773 61.4745,25.5773 C70.6005,25.5773 74.6675,28.7643 80.2955,33.1743 C86.4865,38.0263 94.1925,44.0643 108.6565,44.0643 C123.1215,44.0643 130.8275,38.0263 137.0185,33.1753 C141.8575,29.3833 145.5445,26.4973 152.2825,25.7623 L143.7525,92.1273 Z M163.3825,0.0643 C159.1435,-0.4817 155.2715,2.5123 154.7275,6.7483 L154.2915,10.1373 C140.8185,10.5503 133.4445,16.3263 127.4785,21.0013 C121.8505,25.4123 117.7835,28.5983 108.6565,28.5983 C99.5305,28.5983 95.4635,25.4123 89.8355,21.0013 C83.6445,16.1493 75.9385,10.1113 61.4745,10.1113 C47.0095,10.1113 39.3035,16.1493 33.1125,21.0013 C28.3545,24.7303 24.7105,27.5843 18.1845,28.3773 L15.4045,6.7493 C14.8595,2.5123 10.9845,-0.4807 6.7485,0.0643 C2.5125,0.6083 -0.4805,4.4843 0.0645,8.7203 L11.9045,100.8463 C12.4015,104.7043 15.6855,107.5933 19.5755,107.5933 L150.5555,107.5933 C154.4445,107.5933 157.7295,104.7043 158.2255,100.8463 L170.0665,8.7203 C170.6115,4.4843 167.6185,0.6083 163.3825,0.0643 L163.3825,0.0643 Z M147.9775,115.2323 L22.1525,115.2323 C17.8825,115.2323 14.4195,118.6953 14.4195,122.9653 C14.4195,127.2363 17.8825,130.6993 22.1525,130.6993 L147.9775,130.6993 C152.2485,130.6993 155.7105,127.2363 155.7105,122.9653 C155.7105,118.6953 152.2485,115.2323 147.9775,115.2323 L147.9775,115.2323 Z" id="Fill-1" fill="#221F20" mask="url(#mask-2)"></path>
            </g>
            <path d="M116.7594,102.3074 C111.0644,102.3074 106.4484,106.9234 106.4484,112.6184 C106.4484,118.3124 111.0644,122.9294 116.7594,122.9294 C122.4534,122.9294 127.0714,118.3124 127.0714,112.6184 C127.0714,106.9234 122.4534,102.3074 116.7594,102.3074 L116.7594,102.3074 Z M158.7514,126.1274 L41.3784,126.1274 L35.1544,77.7044 C45.9484,76.3394 52.3564,71.3254 57.6524,67.1754 C63.2804,62.7644 67.3474,59.5774 76.4744,59.5774 C85.6014,59.5774 89.6674,62.7644 95.2954,67.1754 C101.4874,72.0274 109.1924,78.0644 123.6554,78.0644 C138.1214,78.0644 145.8274,72.0274 152.0184,67.1754 C156.8574,63.3824 160.5444,60.4974 167.2824,59.7624 L158.7514,126.1274 Z M178.3834,34.0644 C174.1474,33.5184 170.2724,36.5124 169.7284,40.7484 L169.2914,44.1364 C155.8204,44.5504 148.4454,50.3264 142.4784,55.0014 C136.8504,59.4114 132.7834,62.5984 123.6554,62.5984 C114.5304,62.5984 110.4644,59.4114 104.8354,55.0014 C98.6444,50.1494 90.9394,44.1114 76.4744,44.1114 C62.0094,44.1114 54.3034,50.1494 48.1124,55.0014 C43.3544,58.7304 39.7114,61.5834 33.1844,62.3764 L30.4044,40.7484 C29.8594,36.5124 25.9814,33.5174 21.7484,34.0644 C17.5124,34.6094 14.5194,38.4844 15.0644,42.7204 L26.9054,134.8464 C27.4024,138.7044 30.6854,141.5944 34.5754,141.5944 L165.5544,141.5944 C169.4454,141.5944 172.7304,138.7044 173.2264,134.8474 L185.0664,42.7204 C185.6114,38.4844 182.6184,34.6094 178.3834,34.0644 L178.3834,34.0644 Z M116.7594,79.5484 C111.0644,79.5484 106.4484,84.1644 106.4484,89.8594 C106.4484,95.5534 111.0644,100.1704 116.7594,100.1704 C122.4534,100.1704 127.0714,95.5534 127.0714,89.8594 C127.0714,84.1644 122.4534,79.5484 116.7594,79.5484 L116.7594,79.5484 Z M83.3714,102.3074 C77.6774,102.3074 73.0614,106.9234 73.0614,112.6184 C73.0614,118.3124 77.6774,122.9294 83.3714,122.9294 C89.0664,122.9294 93.6824,118.3124 93.6824,112.6184 C93.6824,106.9234 89.0664,102.3074 83.3714,102.3074 L83.3714,102.3074 Z M83.3714,79.5484 C77.6774,79.5484 73.0614,84.1644 73.0614,89.8594 C73.0614,95.5534 77.6774,100.1704 83.3714,100.1704 C89.0664,100.1704 93.6824,95.5534 93.6824,89.8594 C93.6824,84.1644 89.0664,79.5484 83.3714,79.5484 L83.3714,79.5484 Z" id="Fill-1" fill="#221F20"></path>
        </g>
    </g>
</svg>