<?xml version="1.0" encoding="UTF-8"?>
<svg width="200px" height="200px" viewBox="0 0 200 200" version="1.1" xmlns="http://www.w3.org/2000/svg" xmlns:xlink="http://www.w3.org/1999/xlink">
    <!-- Generator: Sketch 44.1 (41455) - http://www.bohemiancoding.com/sketch -->
    <title>Washing9</title>
    <desc>Created with Sketch.</desc>
    <defs></defs>
    <g id="Washing" stroke="none" stroke-width="1" fill="none" fill-rule="evenodd">
        <g id="Washing9" fill="#221F20">
            <path d="M132.4532,101.8592 C126.7582,101.8592 122.1422,106.4752 122.1422,112.1702 C122.1422,117.8642 126.7582,122.4812 132.4532,122.4812 C138.1472,122.4812 142.7642,117.8642 142.7642,112.1702 C142.7642,106.4752 138.1472,101.8592 132.4532,101.8592 L132.4532,101.8592 Z M99.0652,101.8592 C93.3702,101.8592 88.7542,106.4752 88.7542,112.1702 C88.7542,117.8642 93.3702,122.4812 99.0652,122.4812 C104.7602,122.4812 109.3762,117.8642 109.3762,112.1702 C109.3762,106.4752 104.7602,101.8592 99.0652,101.8592 L99.0652,101.8592 Z M157.7522,138.1282 L40.3772,138.1282 L34.1542,89.7042 C44.9482,88.3392 51.3562,83.3252 56.6522,79.1752 C62.2802,74.7642 66.3472,71.5772 75.4742,71.5772 C84.6002,71.5772 88.6672,74.7642 94.2952,79.1752 C100.4872,84.0272 108.1922,90.0652 122.6562,90.0652 C137.1212,90.0652 144.8272,84.0272 151.0182,79.1752 C155.8572,75.3822 159.5452,72.4972 166.2832,71.7622 L157.7522,138.1282 Z M177.3832,46.0642 C173.1462,45.5182 169.2712,48.5122 168.7272,52.7482 L168.2902,56.1362 C154.8192,56.5502 147.4452,62.3262 141.4782,67.0012 C135.8502,71.4122 131.7832,74.5982 122.6562,74.5982 C113.5302,74.5982 109.4632,71.4122 103.8352,67.0012 C97.6442,62.1492 89.9392,56.1112 75.4742,56.1112 C61.0092,56.1112 53.3032,62.1492 47.1122,67.0012 C42.3542,70.7302 38.7112,73.5842 32.1832,74.3772 L29.4042,52.7492 C28.8592,48.5122 24.9812,45.5182 20.7472,46.0642 C16.5122,46.6092 13.5192,50.4842 14.0642,54.7202 L25.9052,146.8462 C26.4012,150.7042 29.6852,153.5942 33.5752,153.5942 L164.5552,153.5942 C168.4452,153.5942 171.7292,150.7042 172.2252,146.8472 L184.0672,54.7202 C184.6112,50.4842 181.6182,46.6092 177.3832,46.0642 L177.3832,46.0642 Z M65.6782,101.8592 C59.9832,101.8592 55.3672,106.4752 55.3672,112.1702 C55.3672,117.8642 59.9832,122.4812 65.6782,122.4812 C71.3722,122.4812 75.9882,117.8642 75.9882,112.1702 C75.9882,106.4752 71.3722,101.8592 65.6782,101.8592 L65.6782,101.8592 Z" id="Fill-1"></path>
        </g>
    </g>
</svg>