<?xml version="1.0" encoding="UTF-8"?>
<svg width="200px" height="200px" viewBox="0 0 200 200" version="1.1" xmlns="http://www.w3.org/2000/svg" xmlns:xlink="http://www.w3.org/1999/xlink">
    <!-- Generator: Sketch 44.1 (41455) - http://www.bohemiancoding.com/sketch -->
    <title>Washing12</title>
    <desc>Created with Sketch.</desc>
    <defs></defs>
    <g id="Washing" stroke="none" stroke-width="1" fill="none" fill-rule="evenodd">
        <g id="Washing12" fill="#221F20">
            <path d="M158.751853,138.127475 L41.3778531,138.127475 L35.1538531,89.7044746 C45.9488531,88.3394746 52.3558531,83.3244746 57.6518531,79.1744746 C63.2808531,74.7634746 67.3468531,71.5774746 76.4738531,71.5774746 C85.6008531,71.5774746 89.6668531,74.7634746 95.2948531,79.1744746 C101.485853,84.0264746 109.191853,90.0644746 123.656853,90.0644746 C138.120853,90.0644746 145.826853,84.0264746 152.016853,79.1744746 C156.856853,75.3824746 160.543853,72.4974746 167.281853,71.7614746 L158.751853,138.127475 Z M178.381853,46.0644746 C174.146853,45.5184746 170.270853,48.5114746 169.726853,52.7484746 L169.290853,56.1364746 C155.819853,56.5504746 148.444853,62.3254746 142.477853,67.0014746 C136.849853,71.4114746 132.782853,74.5984746 123.656853,74.5984746 C114.529853,74.5984746 110.463853,71.4114746 104.834853,67.0014746 C98.6438531,62.1484746 90.9388531,56.1104746 76.4738531,56.1104746 C62.0088531,56.1104746 54.3038531,62.1484746 48.1118531,67.0014746 C43.3538531,70.7304746 39.7098531,73.5834746 33.1838531,74.3764746 L30.4028531,52.7484746 C29.8588531,48.5114746 25.9808531,45.5174746 21.7488531,46.0644746 C17.5118531,46.6084746 14.5198531,50.4834746 15.0638531,54.7194746 L26.9048531,146.846475 C27.4008531,150.704475 30.6858531,153.593475 34.5758531,153.593475 L165.554853,153.593475 C169.443853,153.593475 172.728853,150.704475 173.224853,146.846475 L185.066853,54.7194746 C185.611853,50.4834746 182.618853,46.6084746 178.381853,46.0644746 L178.381853,46.0644746 Z M116.758853,101.858475 C111.064853,101.858475 106.448853,106.475475 106.448853,112.169475 C106.448853,117.863475 111.064853,122.481475 116.758853,122.481475 C122.453853,122.481475 127.069853,117.863475 127.069853,112.169475 C127.069853,106.475475 122.453853,101.858475 116.758853,101.858475 L116.758853,101.858475 Z M83.3718531,101.858475 C77.6768531,101.858475 73.0608531,106.475475 73.0608531,112.169475 C73.0608531,117.863475 77.6768531,122.481475 83.3718531,122.481475 C89.0658531,122.481475 93.6828531,117.863475 93.6828531,112.169475 C93.6828531,106.475475 89.0658531,101.858475 83.3718531,101.858475 L83.3718531,101.858475 Z" id="Fill-1"></path>
        </g>
    </g>
</svg>