<svg width="200" height="200" viewBox="0 0 200 200" xmlns="http://www.w3.org/2000/svg">
  <title>
    Washing9
  </title>
  <path d="M132.5 102c-5.7 0-10.4 4.5-10.4 10.2 0 5.7 5 10.3 11 10.3s10-4.5 10-10.3c0-5.7-4.2-10.3-10-10.3zM99 102c-5.5 0-10 4.4-10 10 0 5.7 4.6 10.3 10.3 10.3 5.8 0 10.4-4.6 10.4-10.3 0-5.7-4.6-10.3-10.3-10.3zm58.8 36H40.4l-6.2-48.3c10.7-1.4 17.2-6.4 22.5-10.5 5.6-4.4 9.6-7.6 18.8-7.6 9 0 13.2 3.2 18.8 7.6 6.2 4.8 14 11 28.4 11 14.4 0 22-6.2 28.3-11 5-3.8 8.5-6.7 15.3-7.4l-8.5 66.3zm19.6-92c-4.3-.5-8 2.5-8.7 6.7l-.4 3.4c-13.5 1-21 7-26.8 11-5.6 5-9.7 8-18.8 8-9.2 0-13.2-3-19-7-6-5-13.8-11-28.2-11C61 56 53.3 62 47 67c-4.6 3.7-8.3 6.6-14.8 7.4l-2.8-21.7c-.5-4.2-4.4-7.2-8.7-6.6-4.2 1-7.2 5-6.6 9l12 92c1 4 4 7 8 7h131c4 0 7-3 8-7l12-92c.6-4-2.4-8-7-8zM65.7 102c-5.7 0-10.3 4.5-10.3 10.2 0 5.7 4.6 10.3 10.3 10.3 5.7 0 10.3-4.6 10.3-10.3 0-5.7-4.6-10.3-10.3-10.3z" fill="#221F20" fill-rule="evenodd"/>
</svg>
