<svg width="200" height="200" viewBox="0 0 200 200" xmlns="http://www.w3.org/2000/svg" xmlns:xlink="http://www.w3.org/1999/xlink">
  <title>
    Washing20
  </title>
  <defs>
    <path id="a" d="M85 169.2h85V0H0v169.2h85z"/>
  </defs>
  <g transform="translate(15 15)" fill="none" fill-rule="evenodd">
    <mask id="b" fill="#fff">
      <use xlink:href="#a"/>
    </mask>
    <path d="M163.4 28c-4.3-.7-8 2.3-8.7 6.6l-.4 3.4c-13.5.4-21 6.2-26.8 10.8-3.6 2.8-6.6 5.2-10.6 6.5L107 72h1.4c14.4 0 22-6 28.3-11 5-3.8 8.4-6.7 15.2-7.4l-9 66.4h-23l9 15.4h21c4 0 7-3 7.5-6.7l12-92.2c.5-4.2-2.5-8-6.7-8.6zM94 84.5l42-73c2.3-3.7 1-8.4-2.7-10.6-3.7-2-8.4-1-10.6 3L85 69 47.5 4c-2-3.8-7-5-10.6-3-4 2.2-5 7-3 10.6l42 73-42 73c-2 3.7-1 8.4 3 10.5 1 1 2 2 4 2s5-1.4 6-4l38-66 37.6 65.4c1.5 2.5 4 4 6.7 4 1.4 0 2.7-.5 4-1.2 3.6-2 5-6 2.7-10L94 85zM79.5 120l-9 15.4h29l-9-15.4h-11zm-29.7 0H26.4l-6.2-48.5C31 70.2 37.4 65.2 42.7 61 46 58.3 49 56 53 54.7l-8-13.5c-5 2-8.6 5-12 7.6-4.6 3.8-8.3 6.6-14.8 7.4l-2.8-21.6C15 30.3 11 27.3 6.7 28c-4.2.4-7.2 4.3-6.6 8.5l12 92.2c1 3.8 4 6.7 8 6.7h21l9-15.4zm40.7-70.6l-.7-.6c-4-3.2-8.8-7-15.7-9l11 19 6-9.4z" fill="#221F20" mask="url(#b)"/>
  </g>
</svg>
