<?xml version="1.0" encoding="UTF-8"?>
<svg width="200px" height="200px" viewBox="0 0 200 200" version="1.1" xmlns="http://www.w3.org/2000/svg" xmlns:xlink="http://www.w3.org/1999/xlink">
    <!-- Generator: Sketch 44.1 (41455) - http://www.bohemiancoding.com/sketch -->
    <title>Washing5</title>
    <desc>Created with Sketch.</desc>
    <defs>
        <polygon id="path-1" points="0.000445426744 130.699 170.130555 130.699 170.130555 4.41832022e-05 0.000445426744 4.41832022e-05"></polygon>
        <polygon id="path-3" points="0 107.594 170.131 107.594 170.131 -1.42108547e-14 0 -1.42108547e-14"></polygon>
    </defs>
    <g id="Washing" stroke="none" stroke-width="1" fill="none" fill-rule="evenodd">
        <g id="Washing5">
            <g id="Page-1" transform="translate(15.000000, 34.000000)">
                <mask id="mask-2" fill="white">
                    <use xlink:href="#path-1"></use>
                </mask>
                <g id="Clip-2"></g>
                <path d="M143.7525,92.1273 L26.3785,92.1273 L20.1545,43.7043 C30.9485,42.3393 37.3565,37.3253 42.6515,33.1753 C48.2805,28.7643 52.3475,25.5773 61.4745,25.5773 C70.6005,25.5773 74.6675,28.7643 80.2955,33.1743 C86.4865,38.0263 94.1925,44.0643 108.6565,44.0643 C123.1215,44.0643 130.8275,38.0263 137.0185,33.1753 C141.8575,29.3833 145.5445,26.4973 152.2825,25.7623 L143.7525,92.1273 Z M163.3825,0.0643 C159.1435,-0.4817 155.2715,2.5123 154.7275,6.7483 L154.2915,10.1373 C140.8185,10.5503 133.4445,16.3263 127.4785,21.0013 C121.8505,25.4123 117.7835,28.5983 108.6565,28.5983 C99.5305,28.5983 95.4635,25.4123 89.8355,21.0013 C83.6445,16.1493 75.9385,10.1113 61.4745,10.1113 C47.0095,10.1113 39.3035,16.1493 33.1125,21.0013 C28.3545,24.7303 24.7105,27.5843 18.1845,28.3773 L15.4045,6.7493 C14.8595,2.5123 10.9845,-0.4807 6.7485,0.0643 C2.5125,0.6083 -0.4805,4.4843 0.0645,8.7203 L11.9045,100.8463 C12.4015,104.7043 15.6855,107.5933 19.5755,107.5933 L150.5555,107.5933 C154.4445,107.5933 157.7295,104.7043 158.2255,100.8463 L170.0665,8.7203 C170.6115,4.4843 167.6185,0.6083 163.3825,0.0643 L163.3825,0.0643 Z M147.9775,115.2323 L22.1525,115.2323 C17.8825,115.2323 14.4195,118.6953 14.4195,122.9653 C14.4195,127.2363 17.8825,130.6993 22.1525,130.6993 L147.9775,130.6993 C152.2485,130.6993 155.7105,127.2363 155.7105,122.9653 C155.7105,118.6953 152.2485,115.2323 147.9775,115.2323 L147.9775,115.2323 Z" id="Fill-1" fill="#221F20" mask="url(#mask-2)"></path>
            </g>
            <g id="Page-1" transform="translate(15.000000, 34.000000)">
                <mask id="mask-4" fill="white">
                    <use xlink:href="#path-3"></use>
                </mask>
                <g id="Clip-2"></g>
                <path d="M85.0658,45.5481 C79.3708,45.5481 74.7538,50.1651 74.7538,55.8591 C74.7538,61.5531 79.3708,66.1701 85.0658,66.1701 C90.7598,66.1701 95.3778,61.5531 95.3778,55.8591 C95.3778,50.1651 90.7598,45.5481 85.0658,45.5481 L85.0658,45.5481 Z M118.4538,45.5481 C112.7578,45.5481 108.1418,50.1651 108.1418,55.8591 C108.1418,61.5531 112.7578,66.1701 118.4538,66.1701 C124.1478,66.1701 128.7638,61.5531 128.7638,55.8591 C128.7638,50.1651 124.1478,45.5481 118.4538,45.5481 L118.4538,45.5481 Z M143.7528,92.1281 L26.3778,92.1281 L20.1538,43.7051 C30.9478,42.3401 37.3558,37.3251 42.6528,33.1751 C48.2818,28.7641 52.3478,25.5771 61.4748,25.5771 C70.5998,25.5771 74.6678,28.7641 80.2948,33.1751 C86.4868,38.0271 94.1918,44.0651 108.6568,44.0651 C123.1218,44.0651 130.8268,38.0271 137.0178,33.1751 C141.8568,29.3831 145.5448,26.4981 152.2838,25.7621 L143.7528,92.1281 Z M163.3828,0.0641 C159.1458,-0.4819 155.2718,2.5121 154.7268,6.7491 L154.2918,10.1371 C140.8188,10.5511 133.4438,16.3261 127.4778,21.0011 C121.8498,25.4121 117.7828,28.5981 108.6568,28.5981 C99.5308,28.5981 95.4628,25.4121 89.8358,21.0021 C83.6448,16.1501 75.9388,10.1111 61.4748,10.1111 C47.0088,10.1111 39.3028,16.1501 33.1128,21.0021 C28.3538,24.7301 24.7118,27.5841 18.1838,28.3771 L15.4038,6.7491 C14.8598,2.5121 10.9808,-0.4819 6.7488,0.0641 C2.5128,0.6091 -0.4802,4.4851 0.0638,8.7201 L11.9048,100.8461 C12.4008,104.7051 15.6858,107.5941 19.5758,107.5941 L150.5548,107.5941 C154.4448,107.5941 157.7288,104.7051 158.2248,100.8471 L170.0678,8.7211 C170.6108,4.4851 167.6188,0.6091 163.3828,0.0641 L163.3828,0.0641 Z M118.4538,68.3071 C112.7578,68.3071 108.1418,72.9231 108.1418,78.6191 C108.1418,84.3131 112.7578,88.9291 118.4538,88.9291 C124.1478,88.9291 128.7638,84.3131 128.7638,78.6191 C128.7638,72.9231 124.1478,68.3071 118.4538,68.3071 L118.4538,68.3071 Z M51.6768,68.3071 C45.9838,68.3071 41.3668,72.9231 41.3668,78.6191 C41.3668,84.3131 45.9838,88.9291 51.6768,88.9291 C57.3728,88.9291 61.9888,84.3131 61.9888,78.6191 C61.9888,72.9231 57.3728,68.3071 51.6768,68.3071 L51.6768,68.3071 Z M85.0658,68.3071 C79.3708,68.3071 74.7538,72.9231 74.7538,78.6191 C74.7538,84.3131 79.3708,88.9291 85.0658,88.9291 C90.7598,88.9291 95.3778,84.3131 95.3778,78.6191 C95.3778,72.9231 90.7598,68.3071 85.0658,68.3071 L85.0658,68.3071 Z M51.6768,45.5481 C45.9838,45.5481 41.3668,50.1651 41.3668,55.8591 C41.3668,61.5531 45.9838,66.1701 51.6768,66.1701 C57.3728,66.1701 61.9888,61.5531 61.9888,55.8591 C61.9888,50.1651 57.3728,45.5481 51.6768,45.5481 L51.6768,45.5481 Z" id="Fill-1" fill="#221F20" mask="url(#mask-4)"></path>
            </g>
        </g>
    </g>
</svg>