<svg width="200" height="200" viewBox="0 0 200 200" xmlns="http://www.w3.org/2000/svg">
  <title>
    Washing18
  </title>
  <g fill="none" fill-rule="evenodd">
    <path d="M116.8 131c-5.7 0-10.4 4.5-10.4 10.2 0 5.7 4.7 10.3 10.4 10.3S127 147 127 141.2c0-5.7-4.5-10.3-10.2-10.3zM73 141c0 5.7 4.7 10.3 10.4 10.3s10.3-4.6 10.3-10.3c0-5.7-4.6-10.3-10.3-10.3-5.7 0-10.3 4.5-10.3 10.2z" fill="#221F20"/>
    <path d="M178.4 69.5c-4.3-.6-8 2.4-8.7 6.6l-.4 4c-8.2.6-14.2 2.8-19 5.6v19l1.7-1.2c5-3.7 8.5-6.6 15.3-7.4l-8.5 66.4H41.4l-6.2-49C46 112 52.4 107 57.7 102.8c3.7-3 6.8-5.4 11.2-6.7V80c-10 2-16 6.6-21 10.5-5 3.7-9 6.5-15 7.5l-3-22c-.8-4-4.7-7-9-6.7-4 .5-7 4.4-6.6 8.6L27 170c.4 4 3.7 6.8 7.6 6.8h131c3.8 0 7-3 7.6-6.6l12-92c.4-4.3-2.6-8.2-6.8-8.7m-123 2.8c3 2.5 7.5 2 10-1L76.8 58v57.7c0 4 3 7 7 7s7-3 7-7v-37c1 .4 2 .6 3.2.8v41c0 4 3 7 7 7s7-3 7-7V81h3.2v34.7c0 4 3 7 7 7s7-3 7-7V79.5c1.2-.2 2.3-.4 3.2-.7v27.4c0 4 3.2 7 7 7 4 0 7.2-3 7.2-6.4V56c0-11.6-2-23-6-27C129 21.4 94 21 84 28c-1 .4-2 1.4-2 1.7L54.4 62.3c-2.5 3-2 7.4 1 10" fill="#010201"/>
  </g>
</svg>
