<?xml version="1.0" encoding="UTF-8"?>
<svg width="200px" height="200px" viewBox="0 0 200 200" version="1.1" xmlns="http://www.w3.org/2000/svg" xmlns:xlink="http://www.w3.org/1999/xlink">
    <!-- Generator: Sketch 44.1 (41455) - http://www.bohemiancoding.com/sketch -->
    <title>Washing17</title>
    <desc>Created with Sketch.</desc>
    <defs>
        <polygon id="path-1" points="0.000345426744 153.805 170.131 153.805 170.131 0.000742719417 0.000345426744 0.000742719417"></polygon>
    </defs>
    <g id="Washing" stroke="none" stroke-width="1" fill="none" fill-rule="evenodd">
        <g id="Washing17">
            <g id="Page-1" transform="translate(14.000000, 23.000000)">
                <mask id="mask-2" fill="white">
                    <use xlink:href="#path-1"></use>
                </mask>
                <g id="Clip-2"></g>
                <path d="M143.7524,92.1282 L26.3774,92.1282 L20.1544,43.7052 C30.9484,42.3402 37.3564,37.3252 42.6524,33.1752 C48.2804,28.7642 52.3464,25.5782 61.4744,25.5782 C70.6014,25.5782 74.6674,28.7642 80.2954,33.1752 C86.4864,38.0272 94.1924,44.0652 108.6564,44.0652 C123.1214,44.0652 130.8274,38.0272 137.0184,33.1752 C141.8574,29.3832 145.5444,26.4982 152.2834,25.7622 L143.7524,92.1282 Z M163.3824,0.0652 C159.1414,-0.4818 155.2714,2.5132 154.7264,6.7492 L154.2914,10.1372 C140.8194,10.5512 133.4444,16.3262 127.4784,21.0012 C121.8504,25.4122 117.7834,28.5992 108.6564,28.5992 C99.5294,28.5992 95.4634,25.4122 89.8354,21.0022 C83.6444,16.1492 75.9394,10.1112 61.4744,10.1112 C47.0094,10.1112 39.3034,16.1492 33.1124,21.0022 C28.3534,24.7302 24.7114,27.5842 18.1844,28.3772 L15.4044,6.7492 C14.8594,2.5132 10.9844,-0.4798 6.7484,0.0652 C2.5124,0.6092 -0.4806,4.4842 0.0644,8.7202 L11.9054,100.8472 C12.4004,104.7052 15.6854,107.5942 19.5754,107.5942 L150.5554,107.5942 C154.4444,107.5942 157.7294,104.7052 158.2254,100.8472 L170.0674,8.7212 C170.6114,4.4842 167.6184,0.6092 163.3824,0.0652 L163.3824,0.0652 Z M147.9774,115.2332 L22.1534,115.2332 C17.8824,115.2332 14.4194,118.6952 14.4194,122.9662 C14.4194,127.2372 17.8824,130.6992 22.1534,130.6992 L147.9774,130.6992 C152.2484,130.6992 155.7104,127.2372 155.7104,122.9662 C155.7104,118.6952 152.2484,115.2332 147.9774,115.2332 L147.9774,115.2332 Z M147.9774,138.3382 L22.1534,138.3382 C17.8824,138.3382 14.4194,141.8002 14.4194,146.0712 C14.4194,150.3422 17.8824,153.8052 22.1534,153.8052 L147.9774,153.8052 C152.2484,153.8052 155.7104,150.3422 155.7104,146.0712 C155.7104,141.8002 152.2484,138.3382 147.9774,138.3382 L147.9774,138.3382 Z" id="Fill-1" fill="#221F20" mask="url(#mask-2)"></path>
            </g>
            <path d="M158.752072,115.128 L41.3770718,115.128 L35.1540718,66.705 C45.9480718,65.34 52.3560718,60.325 57.6510718,56.175 C63.2800718,51.764 67.3470718,48.578 76.4740718,48.578 C85.6000718,48.578 89.6670718,51.764 95.2950718,56.175 C101.486072,61.027 109.191072,67.065 123.656072,67.065 C138.121072,67.065 145.826072,61.027 152.018072,56.175 C156.856072,52.383 160.544072,49.498 167.283072,48.762 L158.752072,115.128 Z M178.382072,23.065 C174.146072,22.519 170.271072,25.512 169.727072,29.749 L169.291072,33.137 C155.819072,33.551 148.444072,39.326 142.478072,44.002 C136.850072,48.412 132.783072,51.599 123.656072,51.599 C114.530072,51.599 110.463072,48.412 104.835072,44.002 C98.6440718,39.149 90.9390718,33.111 76.4740718,33.111 C62.0090718,33.111 54.3030718,39.149 48.1120718,44.002 C43.3540718,47.731 39.7110718,50.584 33.1830718,51.377 L30.4030718,29.749 C29.8590718,25.512 25.9810718,22.518 21.7480718,23.065 C17.5110718,23.609 14.5190718,27.484 15.0640718,31.72 L26.9050718,123.847 C27.4000718,127.705 30.6850718,130.594 34.5740718,130.594 L165.555072,130.594 C169.445072,130.594 172.729072,127.705 173.225072,123.847 L185.066072,31.72 C185.610072,27.484 182.618072,23.609 178.382072,23.065 L178.382072,23.065 Z M100.064072,78.859 C94.3710718,78.859 89.7540718,83.476 89.7540718,89.17 C89.7540718,94.864 94.3710718,99.482 100.064072,99.482 C105.760072,99.482 110.376072,94.864 110.376072,89.17 C110.376072,83.476 105.760072,78.859 100.064072,78.859 L100.064072,78.859 Z" id="Page-1" fill="#221F20"></path>
        </g>
    </g>
</svg>