<?xml version="1.0" encoding="UTF-8"?>
<svg width="200px" height="200px" viewBox="0 0 200 200" version="1.1" xmlns="http://www.w3.org/2000/svg" xmlns:xlink="http://www.w3.org/1999/xlink">
    <!-- Generator: Sketch 44.1 (41455) - http://www.bohemiancoding.com/sketch -->
    <title>Washing11</title>
    <desc>Created with Sketch.</desc>
    <defs>
        <polygon id="path-1" points="0.000345426744 153.805 170.131 153.805 170.131 0.000742719417 0.000345426744 0.000742719417"></polygon>
    </defs>
    <g id="Washing" stroke="none" stroke-width="1" fill="none" fill-rule="evenodd">
        <g id="Washing11">
            <g id="Page-1" transform="translate(15.000000, 23.000000)">
                <mask id="mask-2" fill="white">
                    <use xlink:href="#path-1"></use>
                </mask>
                <g id="Clip-2"></g>
                <path d="M143.7524,92.1282 L26.3774,92.1282 L20.1544,43.7052 C30.9484,42.3402 37.3564,37.3252 42.6524,33.1752 C48.2804,28.7642 52.3464,25.5782 61.4744,25.5782 C70.6014,25.5782 74.6674,28.7642 80.2954,33.1752 C86.4864,38.0272 94.1924,44.0652 108.6564,44.0652 C123.1214,44.0652 130.8274,38.0272 137.0184,33.1752 C141.8574,29.3832 145.5444,26.4982 152.2834,25.7622 L143.7524,92.1282 Z M163.3824,0.0652 C159.1414,-0.4818 155.2714,2.5132 154.7264,6.7492 L154.2914,10.1372 C140.8194,10.5512 133.4444,16.3262 127.4784,21.0012 C121.8504,25.4122 117.7834,28.5992 108.6564,28.5992 C99.5294,28.5992 95.4634,25.4122 89.8354,21.0022 C83.6444,16.1492 75.9394,10.1112 61.4744,10.1112 C47.0094,10.1112 39.3034,16.1492 33.1124,21.0022 C28.3534,24.7302 24.7114,27.5842 18.1844,28.3772 L15.4044,6.7492 C14.8594,2.5132 10.9844,-0.4798 6.7484,0.0652 C2.5124,0.6092 -0.4806,4.4842 0.0644,8.7202 L11.9054,100.8472 C12.4004,104.7052 15.6854,107.5942 19.5754,107.5942 L150.5554,107.5942 C154.4444,107.5942 157.7294,104.7052 158.2254,100.8472 L170.0674,8.7212 C170.6114,4.4842 167.6184,0.6092 163.3824,0.0652 L163.3824,0.0652 Z M147.9774,115.2332 L22.1534,115.2332 C17.8824,115.2332 14.4194,118.6952 14.4194,122.9662 C14.4194,127.2372 17.8824,130.6992 22.1534,130.6992 L147.9774,130.6992 C152.2484,130.6992 155.7104,127.2372 155.7104,122.9662 C155.7104,118.6952 152.2484,115.2332 147.9774,115.2332 L147.9774,115.2332 Z M147.9774,138.3382 L22.1534,138.3382 C17.8824,138.3382 14.4194,141.8002 14.4194,146.0712 C14.4194,150.3422 17.8824,153.8052 22.1534,153.8052 L147.9774,153.8052 C152.2484,153.8052 155.7104,150.3422 155.7104,146.0712 C155.7104,141.8002 152.2484,138.3382 147.9774,138.3382 L147.9774,138.3382 Z" id="Fill-1" fill="#221F20" mask="url(#mask-2)"></path>
            </g>
            <path d="M133.4532,78.8592 C127.7582,78.8592 123.1422,83.4752 123.1422,89.1702 C123.1422,94.8642 127.7582,99.4812 133.4532,99.4812 C139.1472,99.4812 143.7642,94.8642 143.7642,89.1702 C143.7642,83.4752 139.1472,78.8592 133.4532,78.8592 L133.4532,78.8592 Z M100.0652,78.8592 C94.3702,78.8592 89.7542,83.4752 89.7542,89.1702 C89.7542,94.8642 94.3702,99.4812 100.0652,99.4812 C105.7602,99.4812 110.3762,94.8642 110.3762,89.1702 C110.3762,83.4752 105.7602,78.8592 100.0652,78.8592 L100.0652,78.8592 Z M158.7522,115.1282 L41.3772,115.1282 L35.1542,66.7042 C45.9482,65.3392 52.3562,60.3252 57.6522,56.1752 C63.2802,51.7642 67.3472,48.5772 76.4742,48.5772 C85.6002,48.5772 89.6672,51.7642 95.2952,56.1752 C101.4872,61.0272 109.1922,67.0652 123.6562,67.0652 C138.1212,67.0652 145.8272,61.0272 152.0182,56.1752 C156.8572,52.3822 160.5452,49.4972 167.2832,48.7622 L158.7522,115.1282 Z M178.3832,23.0642 C174.1462,22.5182 170.2712,25.5122 169.7272,29.7482 L169.2902,33.1362 C155.8192,33.5502 148.4452,39.3262 142.4782,44.0012 C136.8502,48.4122 132.7832,51.5982 123.6562,51.5982 C114.5302,51.5982 110.4632,48.4122 104.8352,44.0012 C98.6442,39.1492 90.9392,33.1112 76.4742,33.1112 C62.0092,33.1112 54.3032,39.1492 48.1122,44.0012 C43.3542,47.7302 39.7112,50.5842 33.1832,51.3772 L30.4042,29.7492 C29.8592,25.5122 25.9812,22.5182 21.7472,23.0642 C17.5122,23.6092 14.5192,27.4842 15.0642,31.7202 L26.9052,123.8462 C27.4012,127.7042 30.6852,130.5942 34.5752,130.5942 L165.5552,130.5942 C169.4452,130.5942 172.7292,127.7042 173.2252,123.8472 L185.0672,31.7202 C185.6112,27.4842 182.6182,23.6092 178.3832,23.0642 L178.3832,23.0642 Z M66.6782,78.8592 C60.9832,78.8592 56.3672,83.4752 56.3672,89.1702 C56.3672,94.8642 60.9832,99.4812 66.6782,99.4812 C72.3722,99.4812 76.9882,94.8642 76.9882,89.1702 C76.9882,83.4752 72.3722,78.8592 66.6782,78.8592 L66.6782,78.8592 Z" id="Fill-1" fill="#221F20"></path>
        </g>
    </g>
</svg>