<?xml version="1.0" encoding="UTF-8"?>
<svg width="200px" height="200px" viewBox="0 0 200 200" version="1.1" xmlns="http://www.w3.org/2000/svg" xmlns:xlink="http://www.w3.org/1999/xlink">
    <!-- Generator: Sketch 44.1 (41455) - http://www.bohemiancoding.com/sketch -->
    <title>Washing7</title>
    <desc>Created with Sketch.</desc>
    <defs></defs>
    <g id="Washing" stroke="none" stroke-width="1" fill="none" fill-rule="evenodd">
        <g id="Washing7" fill="#221F20">
            <path d="M116.7594,114.3074 C111.0644,114.3074 106.4484,118.9234 106.4484,124.6184 C106.4484,130.3124 111.0644,134.9294 116.7594,134.9294 C122.4534,134.9294 127.0714,130.3124 127.0714,124.6184 C127.0714,118.9234 122.4534,114.3074 116.7594,114.3074 L116.7594,114.3074 Z M158.7514,138.1274 L41.3784,138.1274 L35.1544,89.7044 C45.9484,88.3394 52.3564,83.3254 57.6524,79.1754 C63.2804,74.7644 67.3474,71.5774 76.4744,71.5774 C85.6014,71.5774 89.6674,74.7644 95.2954,79.1754 C101.4874,84.0274 109.1924,90.0644 123.6554,90.0644 C138.1214,90.0644 145.8274,84.0274 152.0184,79.1754 C156.8574,75.3824 160.5444,72.4974 167.2824,71.7624 L158.7514,138.1274 Z M178.3834,46.0644 C174.1474,45.5184 170.2724,48.5124 169.7284,52.7484 L169.2914,56.1364 C155.8204,56.5504 148.4454,62.3264 142.4784,67.0014 C136.8504,71.4114 132.7834,74.5984 123.6554,74.5984 C114.5304,74.5984 110.4644,71.4114 104.8354,67.0014 C98.6444,62.1494 90.9394,56.1114 76.4744,56.1114 C62.0094,56.1114 54.3034,62.1494 48.1124,67.0014 C43.3544,70.7304 39.7114,73.5834 33.1844,74.3764 L30.4044,52.7484 C29.8594,48.5124 25.9814,45.5174 21.7484,46.0644 C17.5124,46.6094 14.5194,50.4844 15.0644,54.7204 L26.9054,146.8464 C27.4024,150.7044 30.6854,153.5944 34.5754,153.5944 L165.5544,153.5944 C169.4454,153.5944 172.7304,150.7044 173.2264,146.8474 L185.0664,54.7204 C185.6114,50.4844 182.6184,46.6094 178.3834,46.0644 L178.3834,46.0644 Z M116.7594,91.5484 C111.0644,91.5484 106.4484,96.1644 106.4484,101.8594 C106.4484,107.5534 111.0644,112.1704 116.7594,112.1704 C122.4534,112.1704 127.0714,107.5534 127.0714,101.8594 C127.0714,96.1644 122.4534,91.5484 116.7594,91.5484 L116.7594,91.5484 Z M83.3714,114.3074 C77.6774,114.3074 73.0614,118.9234 73.0614,124.6184 C73.0614,130.3124 77.6774,134.9294 83.3714,134.9294 C89.0664,134.9294 93.6824,130.3124 93.6824,124.6184 C93.6824,118.9234 89.0664,114.3074 83.3714,114.3074 L83.3714,114.3074 Z M83.3714,91.5484 C77.6774,91.5484 73.0614,96.1644 73.0614,101.8594 C73.0614,107.5534 77.6774,112.1704 83.3714,112.1704 C89.0664,112.1704 93.6824,107.5534 93.6824,101.8594 C93.6824,96.1644 89.0664,91.5484 83.3714,91.5484 L83.3714,91.5484 Z" id="Fill-1"></path>
        </g>
    </g>
</svg>