<?xml version="1.0" encoding="UTF-8"?>
<svg width="200px" height="200px" viewBox="0 0 200 200" version="1.1" xmlns="http://www.w3.org/2000/svg" xmlns:xlink="http://www.w3.org/1999/xlink">
    <!-- Generator: Sketch 44.1 (41455) - http://www.bohemiancoding.com/sketch -->
    <title>Washing13</title>
    <desc>Created with Sketch.</desc>
    <defs>
        <polygon id="path-1" points="0.000445426744 130.699 170.130555 130.699 170.130555 4.41832022e-05 0.000445426744 4.41832022e-05"></polygon>
    </defs>
    <g id="Washing" stroke="none" stroke-width="1" fill="none" fill-rule="evenodd">
        <g id="Washing13">
            <g id="Page-1" transform="translate(15.000000, 35.000000)">
                <mask id="mask-2" fill="white">
                    <use xlink:href="#path-1"></use>
                </mask>
                <g id="Clip-2"></g>
                <path d="M143.7525,92.1273 L26.3785,92.1273 L20.1545,43.7043 C30.9485,42.3393 37.3565,37.3253 42.6515,33.1753 C48.2805,28.7643 52.3475,25.5773 61.4745,25.5773 C70.6005,25.5773 74.6675,28.7643 80.2955,33.1743 C86.4865,38.0263 94.1925,44.0643 108.6565,44.0643 C123.1215,44.0643 130.8275,38.0263 137.0185,33.1753 C141.8575,29.3833 145.5445,26.4973 152.2825,25.7623 L143.7525,92.1273 Z M163.3825,0.0643 C159.1435,-0.4817 155.2715,2.5123 154.7275,6.7483 L154.2915,10.1373 C140.8185,10.5503 133.4445,16.3263 127.4785,21.0013 C121.8505,25.4123 117.7835,28.5983 108.6565,28.5983 C99.5305,28.5983 95.4635,25.4123 89.8355,21.0013 C83.6445,16.1493 75.9385,10.1113 61.4745,10.1113 C47.0095,10.1113 39.3035,16.1493 33.1125,21.0013 C28.3545,24.7303 24.7105,27.5843 18.1845,28.3773 L15.4045,6.7493 C14.8595,2.5123 10.9845,-0.4807 6.7485,0.0643 C2.5125,0.6083 -0.4805,4.4843 0.0645,8.7203 L11.9045,100.8463 C12.4015,104.7043 15.6855,107.5933 19.5755,107.5933 L150.5555,107.5933 C154.4445,107.5933 157.7295,104.7043 158.2255,100.8463 L170.0665,8.7203 C170.6115,4.4843 167.6185,0.6083 163.3825,0.0643 L163.3825,0.0643 Z M147.9775,115.2323 L22.1525,115.2323 C17.8825,115.2323 14.4195,118.6953 14.4195,122.9653 C14.4195,127.2363 17.8825,130.6993 22.1525,130.6993 L147.9775,130.6993 C152.2485,130.6993 155.7105,127.2363 155.7105,122.9653 C155.7105,118.6953 152.2485,115.2323 147.9775,115.2323 L147.9775,115.2323 Z" id="Fill-1" fill="#221F20" mask="url(#mask-2)"></path>
            </g>
            <path d="M158.751853,127.127475 L41.3778531,127.127475 L35.1538531,78.7044746 C45.9488531,77.3394746 52.3558531,72.3244746 57.6518531,68.1744746 C63.2808531,63.7634746 67.3468531,60.5774746 76.4738531,60.5774746 C85.6008531,60.5774746 89.6668531,63.7634746 95.2948531,68.1744746 C101.485853,73.0264746 109.191853,79.0644746 123.656853,79.0644746 C138.120853,79.0644746 145.826853,73.0264746 152.016853,68.1744746 C156.856853,64.3824746 160.543853,61.4974746 167.281853,60.7614746 L158.751853,127.127475 Z M178.381853,35.0644746 C174.146853,34.5184746 170.270853,37.5114746 169.726853,41.7484746 L169.290853,45.1364746 C155.819853,45.5504746 148.444853,51.3254746 142.477853,56.0014746 C136.849853,60.4114746 132.782853,63.5984746 123.656853,63.5984746 C114.529853,63.5984746 110.463853,60.4114746 104.834853,56.0014746 C98.6438531,51.1484746 90.9388531,45.1104746 76.4738531,45.1104746 C62.0088531,45.1104746 54.3038531,51.1484746 48.1118531,56.0014746 C43.3538531,59.7304746 39.7098531,62.5834746 33.1838531,63.3764746 L30.4028531,41.7484746 C29.8588531,37.5114746 25.9808531,34.5174746 21.7488531,35.0644746 C17.5118531,35.6084746 14.5198531,39.4834746 15.0638531,43.7194746 L26.9048531,135.846475 C27.4008531,139.704475 30.6858531,142.593475 34.5758531,142.593475 L165.554853,142.593475 C169.443853,142.593475 172.728853,139.704475 173.224853,135.846475 L185.066853,43.7194746 C185.611853,39.4834746 182.618853,35.6084746 178.381853,35.0644746 L178.381853,35.0644746 Z M116.758853,90.8584746 C111.064853,90.8584746 106.448853,95.4754746 106.448853,101.169475 C106.448853,106.863475 111.064853,111.481475 116.758853,111.481475 C122.453853,111.481475 127.069853,106.863475 127.069853,101.169475 C127.069853,95.4754746 122.453853,90.8584746 116.758853,90.8584746 L116.758853,90.8584746 Z M83.3718531,90.8584746 C77.6768531,90.8584746 73.0608531,95.4754746 73.0608531,101.169475 C73.0608531,106.863475 77.6768531,111.481475 83.3718531,111.481475 C89.0658531,111.481475 93.6828531,106.863475 93.6828531,101.169475 C93.6828531,95.4754746 89.0658531,90.8584746 83.3718531,90.8584746 L83.3718531,90.8584746 Z" id="Fill-1" fill="#221F20"></path>
        </g>
    </g>
</svg>