<?xml version="1.0" encoding="UTF-8"?>
<svg width="200px" height="200px" viewBox="0 0 200 200" version="1.1" xmlns="http://www.w3.org/2000/svg" xmlns:xlink="http://www.w3.org/1999/xlink">
    <!-- Generator: Sketch 44.1 (41455) - http://www.bohemiancoding.com/sketch -->
    <title>Washing16</title>
    <desc>Created with Sketch.</desc>
    <defs>
        <polygon id="path-1" points="0.000445426744 130.699 170.130555 130.699 170.130555 4.41832022e-05 0.000445426744 4.41832022e-05"></polygon>
    </defs>
    <g id="Washing" stroke="none" stroke-width="1" fill="none" fill-rule="evenodd">
        <g id="Washing16">
            <g id="Page-1" transform="translate(15.000000, 35.000000)">
                <mask id="mask-2" fill="white">
                    <use xlink:href="#path-1"></use>
                </mask>
                <g id="Clip-2"></g>
                <path d="M143.7525,92.1273 L26.3785,92.1273 L20.1545,43.7043 C30.9485,42.3393 37.3565,37.3253 42.6515,33.1753 C48.2805,28.7643 52.3475,25.5773 61.4745,25.5773 C70.6005,25.5773 74.6675,28.7643 80.2955,33.1743 C86.4865,38.0263 94.1925,44.0643 108.6565,44.0643 C123.1215,44.0643 130.8275,38.0263 137.0185,33.1753 C141.8575,29.3833 145.5445,26.4973 152.2825,25.7623 L143.7525,92.1273 Z M163.3825,0.0643 C159.1435,-0.4817 155.2715,2.5123 154.7275,6.7483 L154.2915,10.1373 C140.8185,10.5503 133.4445,16.3263 127.4785,21.0013 C121.8505,25.4123 117.7835,28.5983 108.6565,28.5983 C99.5305,28.5983 95.4635,25.4123 89.8355,21.0013 C83.6445,16.1493 75.9385,10.1113 61.4745,10.1113 C47.0095,10.1113 39.3035,16.1493 33.1125,21.0013 C28.3545,24.7303 24.7105,27.5843 18.1845,28.3773 L15.4045,6.7493 C14.8595,2.5123 10.9845,-0.4807 6.7485,0.0643 C2.5125,0.6083 -0.4805,4.4843 0.0645,8.7203 L11.9045,100.8463 C12.4015,104.7043 15.6855,107.5933 19.5755,107.5933 L150.5555,107.5933 C154.4445,107.5933 157.7295,104.7043 158.2255,100.8463 L170.0665,8.7203 C170.6115,4.4843 167.6185,0.6083 163.3825,0.0643 L163.3825,0.0643 Z M147.9775,115.2323 L22.1525,115.2323 C17.8825,115.2323 14.4195,118.6953 14.4195,122.9653 C14.4195,127.2363 17.8825,130.6993 22.1525,130.6993 L147.9775,130.6993 C152.2485,130.6993 155.7105,127.2363 155.7105,122.9653 C155.7105,118.6953 152.2485,115.2323 147.9775,115.2323 L147.9775,115.2323 Z" id="Fill-1" fill="#221F20" mask="url(#mask-2)"></path>
            </g>
            <path d="M158.752072,127.128 L41.3770718,127.128 L35.1540718,78.705 C45.9480718,77.34 52.3560718,72.325 57.6510718,68.175 C63.2800718,63.764 67.3470718,60.578 76.4740718,60.578 C85.6000718,60.578 89.6670718,63.764 95.2950718,68.175 C101.486072,73.027 109.191072,79.065 123.656072,79.065 C138.121072,79.065 145.826072,73.027 152.018072,68.175 C156.856072,64.383 160.544072,61.498 167.283072,60.762 L158.752072,127.128 Z M178.382072,35.065 C174.146072,34.519 170.271072,37.512 169.727072,41.749 L169.291072,45.137 C155.819072,45.551 148.444072,51.326 142.478072,56.002 C136.850072,60.412 132.783072,63.599 123.656072,63.599 C114.530072,63.599 110.463072,60.412 104.835072,56.002 C98.6440718,51.149 90.9390718,45.111 76.4740718,45.111 C62.0090718,45.111 54.3030718,51.149 48.1120718,56.002 C43.3540718,59.731 39.7110718,62.584 33.1830718,63.377 L30.4030718,41.749 C29.8590718,37.512 25.9810718,34.518 21.7480718,35.065 C17.5110718,35.609 14.5190718,39.484 15.0640718,43.72 L26.9050718,135.847 C27.4000718,139.705 30.6850718,142.594 34.5740718,142.594 L165.555072,142.594 C169.445072,142.594 172.729072,139.705 173.225072,135.847 L185.066072,43.72 C185.610072,39.484 182.618072,35.609 178.382072,35.065 L178.382072,35.065 Z M100.064072,90.859 C94.3710718,90.859 89.7540718,95.476 89.7540718,101.17 C89.7540718,106.864 94.3710718,111.482 100.064072,111.482 C105.760072,111.482 110.376072,106.864 110.376072,101.17 C110.376072,95.476 105.760072,90.859 100.064072,90.859 L100.064072,90.859 Z" id="Page-1" fill="#221F20"></path>
        </g>
    </g>
</svg>