<svg width="200" height="200" viewBox="0 0 200 200" xmlns="http://www.w3.org/2000/svg" xmlns:xlink="http://www.w3.org/1999/xlink">
  <title>
    Washing8
  </title>
  <defs>
    <path id="a" d="M0 130.7h170V0H0z"/>
  </defs>
  <g fill="none" fill-rule="evenodd">
    <g transform="translate(15 34)">
      <mask id="b" fill="#fff">
        <use xlink:href="#a"/>
      </mask>
      <path d="M143.8 92H26.4l-6.2-48.3c10.7-1.4 17.2-6.4 22.5-10.5 5.6-4.4 9.6-7.6 18.8-7.6 9 0 13.2 3.2 18.8 7.6 6.2 4.8 14 11 28.4 11 14.4 0 22-6.2 28.3-11 5-3.8 8.5-6.7 15.3-7.4L143.8 92zm19.6-92c-4.3-.5-8 2.5-8.7 6.7l-.4 3.4c-13.5 1-21 7-26.8 11-5.6 5-9.7 8-18.8 8-9.2 0-13.2-3-19-7-6-5-13.8-11-28.2-11C47 10 39.3 16 33 21c-4.6 3.7-8.3 6.6-14.8 7.4L15.4 6.7C15 2.5 11-.5 6.7 0 2.5.7-.5 4.6 0 8.8l12 92c.4 4 3.7 7 7.6 7h131c3.8 0 7-3 7.6-7l12-92c.4-4.2-2.6-8-6.8-8.6zM148 115.3H22.2c-4.3 0-7.8 3.5-7.8 7.8s3.5 8 7.8 8H148c4.2 0 7.7-3 7.7-7s-3.5-7-7.7-7z" fill="#221F20" mask="url(#b)"/>
    </g>
    <path d="M116.8 102.3c-5.7 0-10.4 4.6-10.4 10.3 0 5.7 4.7 10.3 10.4 10.3s10.2-5 10.2-11-4.4-11-10-11zm42 23.8H41.4l-6.2-48c10.8-1 17.2-6 22.5-10 5.6-5 9.6-8 18.8-8 9 0 13.2 3 18.8 8 6.2 5 14 11 28.4 11 14.4 0 22-6 28.3-11 5-4 8.5-6 15.3-7l-8.5 67zm19.6-92c-4.3 0-8 3-8.7 7l-.4 4c-13.5 1-21 7-26.8 11-5.6 5-9.7 8-18.8 8-9.2 0-13.2-3-19-7-6-5-13.8-11-28.2-11C62 44 54.3 50 48 55c-4.6 3.7-8.3 6.6-14.8 7.4l-2.8-21.7c-.5-4.2-4.4-7.2-8.7-6.6-4.2 1-7.2 5-6.6 9l12 92c1 4 4 7 8 7h131c4 0 7-3 8-7l12-92c1-4-2-8-7-8zm-61.6 46c-5.7 0-10.4 5-10.4 11s4.6 10 10.4 10S127 96 127 90s-4.5-10.5-10.2-10.5zm-33.4 23c-5.7 0-10.4 5-10.4 10 0 6 5 11 11 11s10-5 10-10.2S89.3 103 83.6 103zm0-23C77.7 80 73 85 73 90s4.7 10.2 10.4 10.2S93.7 95.6 93.7 90c0-5.8-4.6-10.5-10.3-10.5z" fill="#221F20"/>
  </g>
</svg>
