<?xml version="1.0" encoding="UTF-8"?>
<svg width="200px" height="200px" viewBox="0 0 200 200" version="1.1" xmlns="http://www.w3.org/2000/svg" xmlns:xlink="http://www.w3.org/1999/xlink">
    <!-- Generator: Sketch 44.1 (41455) - http://www.bohemiancoding.com/sketch -->
    <title>Washing20</title>
    <desc>Created with Sketch.</desc>
    <defs>
        <polygon id="path-1" points="85.0651638 169.163 170.13 169.163 170.13 0.000220903222 0.000327664328 0.000220903222 0.000327664328 169.163 85.0651638 169.163"></polygon>
    </defs>
    <g id="Washing" stroke="none" stroke-width="1" fill="none" fill-rule="evenodd">
        <g id="Washing20">
            <g id="Page-1" transform="translate(15.000000, 15.000000)">
                <mask id="mask-2" fill="white">
                    <use xlink:href="#path-1"></use>
                </mask>
                <g id="Clip-2"></g>
                <path d="M163.3824,27.893 C159.1464,27.347 155.2714,30.341 154.7274,34.577 L154.2904,37.966 C140.8194,38.38 133.4444,44.155 127.4784,48.83 C123.8804,51.649 120.9194,53.966 116.8684,55.273 L107.2834,71.875 C107.7354,71.887 108.1924,71.893 108.6554,71.893 C123.1214,71.893 130.8264,65.855 137.0184,61.004 C141.8564,57.212 145.5444,54.326 152.2824,53.591 L143.7514,119.956 L120.3714,119.956 L129.3004,135.422 L150.5544,135.422 C154.4444,135.422 157.7294,132.533 158.2254,128.675 L170.0664,36.549 C170.6114,32.313 167.6184,28.438 163.3824,27.893 L163.3824,27.893 Z M93.9944,84.582 L136.1294,11.601 C138.2664,7.902 136.9984,3.173 133.2994,1.038 C129.6004,-1.098 124.8714,0.169 122.7364,3.868 L85.0654,69.116 L47.3944,3.868 C45.2584,0.169 40.5284,-1.097 36.8304,1.038 C33.1314,3.173 31.8644,7.902 34.0004,11.601 L76.1354,84.582 L34.0004,157.562 C31.8654,161.261 33.1324,165.99 36.8304,168.126 C38.0484,168.829 39.3784,169.163 40.6904,169.163 C43.3624,169.163 45.9624,167.776 47.3954,165.295 L85.0654,100.049 L122.7354,165.295 C124.1684,167.776 126.7674,169.163 129.4404,169.163 C130.7514,169.163 132.0814,168.829 133.2994,168.126 C136.9984,165.99 138.2664,161.261 136.1294,157.562 L93.9944,84.582 Z M79.5244,119.956 L70.5944,135.422 L99.5354,135.422 L90.6064,119.956 L79.5244,119.956 Z M49.7604,119.956 L26.3774,119.956 L20.1534,71.533 C30.9474,70.168 37.3564,65.154 42.6524,61.004 C46.1474,58.266 49.0394,55.999 52.9144,54.674 L45.1074,41.151 C40.1494,43.318 36.4134,46.243 33.1114,48.83 C28.3534,52.559 24.7114,55.413 18.1834,56.206 L15.4034,34.577 C14.8594,30.341 10.9814,27.347 6.7474,27.893 C2.5114,28.438 -0.4806,32.313 0.0644,36.549 L11.9044,128.675 C12.4014,132.533 15.6854,135.422 19.5744,135.422 L40.8304,135.422 L49.7604,119.956 Z M90.5164,49.364 C90.2904,49.187 90.0654,49.01 89.8344,48.83 C85.7424,45.623 80.9874,41.9 74.0594,39.743 L85.0654,58.805 L90.5164,49.364 Z" id="Fill-1" fill="#221F20" mask="url(#mask-2)"></path>
            </g>
        </g>
    </g>
</svg>