<?xml version="1.0" encoding="UTF-8"?>
<svg width="200px" height="200px" viewBox="0 0 200 200" version="1.1" xmlns="http://www.w3.org/2000/svg" xmlns:xlink="http://www.w3.org/1999/xlink">
    <!-- Generator: Sketch 44.1 (41455) - http://www.bohemiancoding.com/sketch -->
    <title>Washing15</title>
    <desc>Created with Sketch.</desc>
    <defs></defs>
    <g id="Washing" stroke="none" stroke-width="1" fill="none" fill-rule="evenodd">
        <g id="Washing15" fill="#221F20">
            <path d="M158.752072,138.128 L41.3770718,138.128 L35.1540718,89.705 C45.9480718,88.34 52.3560718,83.325 57.6510718,79.175 C63.2800718,74.764 67.3470718,71.578 76.4740718,71.578 C85.6000718,71.578 89.6670718,74.764 95.2950718,79.175 C101.486072,84.027 109.191072,90.065 123.656072,90.065 C138.121072,90.065 145.826072,84.027 152.018072,79.175 C156.856072,75.383 160.544072,72.498 167.283072,71.762 L158.752072,138.128 Z M178.382072,46.065 C174.146072,45.519 170.271072,48.512 169.727072,52.749 L169.291072,56.137 C155.819072,56.551 148.444072,62.326 142.478072,67.002 C136.850072,71.412 132.783072,74.599 123.656072,74.599 C114.530072,74.599 110.463072,71.412 104.835072,67.002 C98.6440718,62.149 90.9390718,56.111 76.4740718,56.111 C62.0090718,56.111 54.3030718,62.149 48.1120718,67.002 C43.3540718,70.731 39.7110718,73.584 33.1830718,74.377 L30.4030718,52.749 C29.8590718,48.512 25.9810718,45.518 21.7480718,46.065 C17.5110718,46.609 14.5190718,50.484 15.0640718,54.72 L26.9050718,146.847 C27.4000718,150.705 30.6850718,153.594 34.5740718,153.594 L165.555072,153.594 C169.445072,153.594 172.729072,150.705 173.225072,146.847 L185.066072,54.72 C185.610072,50.484 182.618072,46.609 178.382072,46.065 L178.382072,46.065 Z M100.064072,101.859 C94.3710718,101.859 89.7540718,106.476 89.7540718,112.17 C89.7540718,117.864 94.3710718,122.482 100.064072,122.482 C105.760072,122.482 110.376072,117.864 110.376072,112.17 C110.376072,106.476 105.760072,101.859 100.064072,101.859 L100.064072,101.859 Z" id="Page-1"></path>
        </g>
    </g>
</svg>