<?xml version="1.0" encoding="UTF-8"?>
<svg width="200px" height="200px" viewBox="0 0 200 200" version="1.1" xmlns="http://www.w3.org/2000/svg" xmlns:xlink="http://www.w3.org/1999/xlink">
    <!-- Generator: Sketch 44.1 (41455) - http://www.bohemiancoding.com/sketch -->
    <title>Washing1</title>
    <desc>Created with Sketch.</desc>
    <defs></defs>
    <g id="Washing" stroke="none" stroke-width="1" fill="none" fill-rule="evenodd">
        <g id="Washing1" fill="#221F20">
            <path d="M158.752055,138.128 L41.3770546,138.128 L35.1540546,89.705 C45.9480546,88.34 52.3560546,83.326 57.6510546,79.175 C63.2800546,74.765 67.3460546,71.578 76.4740546,71.578 C85.6000546,71.578 89.6670546,74.765 95.2950546,79.175 C101.486055,84.027 109.191055,90.065 123.656055,90.065 C138.121055,90.065 145.826055,84.027 152.018055,79.175 C156.856055,75.383 160.544055,72.498 167.283055,71.763 L158.752055,138.128 Z M178.382055,46.065 C174.146055,45.519 170.271055,48.513 169.727055,52.749 L169.291055,56.138 C155.819055,56.551 148.444055,62.326 142.478055,67.002 C136.850055,71.412 132.783055,74.599 123.656055,74.599 C114.530055,74.599 110.463055,71.412 104.835055,67.002 C98.6440546,62.15 90.9390546,56.112 76.4740546,56.112 C62.0090546,56.112 54.3030546,62.15 48.1120546,67.002 C43.3540546,70.731 39.7110546,73.585 33.1830546,74.377 L30.4030546,52.749 C29.8590546,48.512 25.9810546,45.519 21.7480546,46.065 C17.5120546,46.609 14.5190546,50.485 15.0640546,54.721 L26.9050546,146.847 C27.4000546,150.705 30.6850546,153.594 34.5750546,153.594 L165.555055,153.594 C169.444055,153.594 172.729055,150.705 173.225055,146.847 L185.066055,54.721 C185.611055,50.485 182.618055,46.609 178.382055,46.065 L178.382055,46.065 Z" id="Page-1"></path>
        </g>
    </g>
</svg>