<?xml version="1.0" encoding="UTF-8"?>
<svg width="200px" height="200px" viewBox="0 0 200 200" version="1.1" xmlns="http://www.w3.org/2000/svg" xmlns:xlink="http://www.w3.org/1999/xlink">
    <!-- Generator: Sketch 44.1 (41455) - http://www.bohemiancoding.com/sketch -->
    <title>Washing19</title>
    <desc>Created with Sketch.</desc>
    <defs></defs>
    <g id="Washing" stroke="none" stroke-width="1" fill="none" fill-rule="evenodd">
        <g id="Washing19">
            <path d="M178.3828,69.4507 C174.1478,68.9047 170.2718,71.8987 169.7278,76.1347 L169.2908,79.5227 C161.0518,79.7767 155.0958,82.0357 150.3458,84.8217 L150.3458,103.8647 C150.9168,103.4237 151.4738,102.9877 152.0188,102.5607 C156.8578,98.7687 160.5448,95.8837 167.2828,95.1487 L158.7518,161.5137 L41.3788,161.5137 L35.1548,113.0907 C45.9488,111.7257 52.3568,106.7107 57.6528,102.5607 C61.4408,99.5927 64.5238,97.1797 68.9168,95.9187 L68.9228,80.1027 C59.1358,81.7517 53.1278,86.4577 48.1128,90.3877 C43.3538,94.1157 39.7118,96.9697 33.1848,97.7627 L30.4038,76.1347 C29.8608,71.8987 25.9818,68.9057 21.7488,69.4507 C17.5128,69.9947 14.5198,73.8697 15.0638,78.1057 L26.9048,170.2327 C27.4018,174.0907 30.6858,176.9797 34.5758,176.9797 L165.5548,176.9797 C169.4448,176.9797 172.7308,174.0907 173.2258,170.2327 L185.0678,78.1067 C185.6118,73.8697 182.6188,69.9947 178.3828,69.4507 M55.4838,72.2607 C58.4808,74.7767 62.9498,74.3857 65.4658,71.3877 L76.6638,58.0417 L76.6428,115.7367 C76.6428,119.6497 79.8148,122.8227 83.7288,122.8227 C87.6408,122.8227 90.8138,119.6497 90.8138,115.7367 L90.8138,78.8087 C91.7948,79.0657 92.8308,79.2987 93.9088,79.5077 L93.9088,120.4997 C93.9088,124.4127 97.0808,127.5847 100.9938,127.5847 C104.9068,127.5847 108.0788,124.4127 108.0788,120.4997 L108.0788,80.8587 C109.1118,80.8737 110.1438,80.8737 111.1748,80.8587 L111.1748,115.7367 C111.1748,119.6497 114.3468,122.8227 118.2598,122.8227 C122.1738,122.8227 125.3448,119.6497 125.3448,115.7367 L125.3448,79.5077 C126.4248,79.2987 127.4598,79.0657 128.4418,78.8087 L128.4418,106.2107 C128.4418,110.1227 131.6128,113.2967 135.5268,113.2967 C139.4408,113.2967 142.6128,110.1227 142.6118,106.7667 L142.6118,55.9837 L142.6118,55.9557 C142.6068,44.4347 140.6248,32.9217 136.6558,28.9557 C129.0748,21.3717 93.9138,21.0317 83.8508,27.9317 C83.1858,28.3577 82.1458,29.4387 81.9098,29.7427 L54.6098,62.2787 C52.0948,65.2767 52.4868,69.7457 55.4838,72.2607" id="Fill-1" fill="#010201"></path>
            <path d="M100.064072,132.859 C94.3710718,132.859 89.7540718,137.476 89.7540718,143.17 C89.7540718,148.864 94.3710718,153.482 100.064072,153.482 C105.760072,153.482 110.376072,148.864 110.376072,143.17 C110.376072,137.476 105.760072,132.859 100.064072,132.859 L100.064072,132.859 Z" id="Page-1" fill="#221F20"></path>
        </g>
    </g>
</svg>