<?xml version="1.0" encoding="UTF-8"?>
<svg width="200px" height="200px" viewBox="0 0 200 200" version="1.1" xmlns="http://www.w3.org/2000/svg" xmlns:xlink="http://www.w3.org/1999/xlink">
    <!-- Generator: Sketch 44.1 (41455) - http://www.bohemiancoding.com/sketch -->
    <title>Washing14</title>
    <desc>Created with Sketch.</desc>
    <defs>
        <polygon id="path-1" points="0.000345426744 153.805 170.131 153.805 170.131 0.000742719417 0.000345426744 0.000742719417"></polygon>
    </defs>
    <g id="Washing" stroke="none" stroke-width="1" fill="none" fill-rule="evenodd">
        <g id="Washing14">
            <g id="Page-1" transform="translate(15.000000, 23.000000)">
                <mask id="mask-2" fill="white">
                    <use xlink:href="#path-1"></use>
                </mask>
                <g id="Clip-2"></g>
                <path d="M143.7524,92.1282 L26.3774,92.1282 L20.1544,43.7052 C30.9484,42.3402 37.3564,37.3252 42.6524,33.1752 C48.2804,28.7642 52.3464,25.5782 61.4744,25.5782 C70.6014,25.5782 74.6674,28.7642 80.2954,33.1752 C86.4864,38.0272 94.1924,44.0652 108.6564,44.0652 C123.1214,44.0652 130.8274,38.0272 137.0184,33.1752 C141.8574,29.3832 145.5444,26.4982 152.2834,25.7622 L143.7524,92.1282 Z M163.3824,0.0652 C159.1414,-0.4818 155.2714,2.5132 154.7264,6.7492 L154.2914,10.1372 C140.8194,10.5512 133.4444,16.3262 127.4784,21.0012 C121.8504,25.4122 117.7834,28.5992 108.6564,28.5992 C99.5294,28.5992 95.4634,25.4122 89.8354,21.0022 C83.6444,16.1492 75.9394,10.1112 61.4744,10.1112 C47.0094,10.1112 39.3034,16.1492 33.1124,21.0022 C28.3534,24.7302 24.7114,27.5842 18.1844,28.3772 L15.4044,6.7492 C14.8594,2.5132 10.9844,-0.4798 6.7484,0.0652 C2.5124,0.6092 -0.4806,4.4842 0.0644,8.7202 L11.9054,100.8472 C12.4004,104.7052 15.6854,107.5942 19.5754,107.5942 L150.5554,107.5942 C154.4444,107.5942 157.7294,104.7052 158.2254,100.8472 L170.0674,8.7212 C170.6114,4.4842 167.6184,0.6092 163.3824,0.0652 L163.3824,0.0652 Z M147.9774,115.2332 L22.1534,115.2332 C17.8824,115.2332 14.4194,118.6952 14.4194,122.9662 C14.4194,127.2372 17.8824,130.6992 22.1534,130.6992 L147.9774,130.6992 C152.2484,130.6992 155.7104,127.2372 155.7104,122.9662 C155.7104,118.6952 152.2484,115.2332 147.9774,115.2332 L147.9774,115.2332 Z M147.9774,138.3382 L22.1534,138.3382 C17.8824,138.3382 14.4194,141.8002 14.4194,146.0712 C14.4194,150.3422 17.8824,153.8052 22.1534,153.8052 L147.9774,153.8052 C152.2484,153.8052 155.7104,150.3422 155.7104,146.0712 C155.7104,141.8002 152.2484,138.3382 147.9774,138.3382 L147.9774,138.3382 Z" id="Fill-1" fill="#221F20" mask="url(#mask-2)"></path>
            </g>
            <path d="M158.751853,115.127475 L41.3778531,115.127475 L35.1538531,66.7044746 C45.9488531,65.3394746 52.3558531,60.3244746 57.6518531,56.1744746 C63.2808531,51.7634746 67.3468531,48.5774746 76.4738531,48.5774746 C85.6008531,48.5774746 89.6668531,51.7634746 95.2948531,56.1744746 C101.485853,61.0264746 109.191853,67.0644746 123.656853,67.0644746 C138.120853,67.0644746 145.826853,61.0264746 152.016853,56.1744746 C156.856853,52.3824746 160.543853,49.4974746 167.281853,48.7614746 L158.751853,115.127475 Z M178.381853,23.0644746 C174.146853,22.5184746 170.270853,25.5114746 169.726853,29.7484746 L169.290853,33.1364746 C155.819853,33.5504746 148.444853,39.3254746 142.477853,44.0014746 C136.849853,48.4114746 132.782853,51.5984746 123.656853,51.5984746 C114.529853,51.5984746 110.463853,48.4114746 104.834853,44.0014746 C98.6438531,39.1484746 90.9388531,33.1104746 76.4738531,33.1104746 C62.0088531,33.1104746 54.3038531,39.1484746 48.1118531,44.0014746 C43.3538531,47.7304746 39.7098531,50.5834746 33.1838531,51.3764746 L30.4028531,29.7484746 C29.8588531,25.5114746 25.9808531,22.5174746 21.7488531,23.0644746 C17.5118531,23.6084746 14.5198531,27.4834746 15.0638531,31.7194746 L26.9048531,123.846475 C27.4008531,127.704475 30.6858531,130.593475 34.5758531,130.593475 L165.554853,130.593475 C169.443853,130.593475 172.728853,127.704475 173.224853,123.846475 L185.066853,31.7194746 C185.611853,27.4834746 182.618853,23.6084746 178.381853,23.0644746 L178.381853,23.0644746 Z M116.758853,78.8584746 C111.064853,78.8584746 106.448853,83.4754746 106.448853,89.1694746 C106.448853,94.8634746 111.064853,99.4814746 116.758853,99.4814746 C122.453853,99.4814746 127.069853,94.8634746 127.069853,89.1694746 C127.069853,83.4754746 122.453853,78.8584746 116.758853,78.8584746 L116.758853,78.8584746 Z M83.3718531,78.8584746 C77.6768531,78.8584746 73.0608531,83.4754746 73.0608531,89.1694746 C73.0608531,94.8634746 77.6768531,99.4814746 83.3718531,99.4814746 C89.0658531,99.4814746 93.6828531,94.8634746 93.6828531,89.1694746 C93.6828531,83.4754746 89.0658531,78.8584746 83.3718531,78.8584746 L83.3718531,78.8584746 Z" id="Fill-1" fill="#221F20"></path>
        </g>
    </g>
</svg>