<?xml version="1.0" encoding="UTF-8"?>
<svg width="200px" height="200px" viewBox="0 0 200 200" version="1.1" xmlns="http://www.w3.org/2000/svg" xmlns:xlink="http://www.w3.org/1999/xlink">
    <!-- Generator: Sketch 44.1 (41455) - http://www.bohemiancoding.com/sketch -->
    <title>Washing6</title>
    <desc>Created with Sketch.</desc>
    <defs></defs>
    <g id="Washing" stroke="none" stroke-width="1" fill="none" fill-rule="evenodd">
        <g id="Washing6" fill="#221F20">
            <path d="M133.4537,91.5481 C127.7597,91.5481 123.1417,96.1651 123.1417,101.8591 C123.1417,107.5531 127.7597,112.1701 133.4537,112.1701 C139.1477,112.1701 143.7647,107.5531 143.7647,101.8591 C143.7647,96.1651 139.1477,91.5481 133.4537,91.5481 L133.4537,91.5481 Z M158.7527,138.1281 L41.3777,138.1281 L35.1537,89.7051 C45.9487,88.3401 52.3557,83.3251 57.6517,79.1751 C63.2807,74.7641 67.3477,71.5771 76.4747,71.5771 C85.6007,71.5771 89.6677,74.7641 95.2957,79.1751 C101.4857,84.0271 109.1917,90.0651 123.6567,90.0651 C138.1217,90.0651 145.8267,84.0271 152.0177,79.1751 C156.8567,75.3831 160.5447,72.4981 167.2827,71.7621 L158.7527,138.1281 Z M178.3837,46.0641 C174.1457,45.5181 170.2707,48.5121 169.7277,52.7491 L169.2917,56.1371 C155.8197,56.5511 148.4447,62.3261 142.4777,67.0011 C136.8497,71.4121 132.7827,74.5981 123.6567,74.5981 C114.5307,74.5981 110.4647,71.4121 104.8357,67.0021 C98.6437,62.1501 90.9387,56.1111 76.4747,56.1111 C62.0097,56.1111 54.3047,62.1501 48.1127,67.0021 C43.3537,70.7301 39.7117,73.5841 33.1837,74.3771 L30.4037,52.7491 C29.8587,48.5121 25.9817,45.5181 21.7487,46.0641 C17.5127,46.6091 14.5187,50.4851 15.0637,54.7201 L26.9057,146.8461 C27.4017,150.7051 30.6847,153.5941 34.5747,153.5941 L165.5557,153.5941 C169.4447,153.5941 172.7297,150.7051 173.2247,146.8471 L185.0667,54.7211 C185.6107,50.4851 182.6187,46.6091 178.3837,46.0641 L178.3837,46.0641 Z M116.7597,114.3071 C111.0647,114.3071 106.4477,118.9231 106.4477,124.6191 C106.4477,130.3131 111.0647,134.9291 116.7597,134.9291 C122.4547,134.9291 127.0697,130.3131 127.0697,124.6191 C127.0697,118.9231 122.4547,114.3071 116.7597,114.3071 L116.7597,114.3071 Z M76.9887,101.8591 C76.9887,96.1651 72.3727,91.5481 66.6787,91.5481 C60.9827,91.5481 56.3667,96.1651 56.3667,101.8591 C56.3667,107.5531 60.9827,112.1701 66.6787,112.1701 C72.3727,112.1701 76.9887,107.5531 76.9887,101.8591 L76.9887,101.8591 Z M110.3767,101.8591 C110.3767,96.1651 105.7607,91.5481 100.0657,91.5481 C94.3707,91.5481 89.7547,96.1651 89.7547,101.8591 C89.7547,107.5531 94.3707,112.1701 100.0657,112.1701 C105.7607,112.1701 110.3767,107.5531 110.3767,101.8591 L110.3767,101.8591 Z M83.3717,114.3071 C77.6777,114.3071 73.0607,118.9231 73.0607,124.6191 C73.0607,130.3131 77.6777,134.9291 83.3717,134.9291 C89.0657,134.9291 93.6827,130.3131 93.6827,124.6191 C93.6827,118.9231 89.0657,114.3071 83.3717,114.3071 L83.3717,114.3071 Z" id="Fill-1"></path>
        </g>
    </g>
</svg>