<?xml version="1.0" encoding="UTF-8"?>
<svg width="88px" height="74px" viewBox="0 0 88 74" version="1.1" xmlns="http://www.w3.org/2000/svg" xmlns:xlink="http://www.w3.org/1999/xlink">
    <!-- Generator: Sketch 44.1 (41455) - http://www.bohemiancoding.com/sketch -->
    <title>noun_895978_cc</title>
    <desc>Created with Sketch.</desc>
    <defs></defs>
    <g id="Page-1" stroke="none" stroke-width="1" fill="none" fill-rule="evenodd">
        <g id="noun_895978_cc" stroke="#000000">
            <path d="M0.183,14.961 C0.183,14.961 2.813,16.644 7.465,18.524 C21.423,24.162 53.586,31.565 87.57,0.576" id="Shape" stroke-width="0.9431"></path>
            <path d="M33.462,34.14 C32.771,36.662 27.338,35.669 27.338,35.669 L27.338,50.05 L21.525,50.05 C19.227,44.013 14.252,45.084 14.252,45.084 C1.78,45.464 4.613,41.861 4.613,41.861 C4.613,41.861 13.181,28.094 10.581,28.931 C7.981,29.778 8.215,26.945 8.215,26.945 L13.706,22.797 L13.784,22.816 L14.32,18.62 L15.527,18.776 L14.982,23.06 L15.693,23.206 L15.557,25.26 C19.15,30.771 25.196,26.643 25.196,26.643 L25.829,24.998 L26.812,25.144 L27.357,20.86 L28.564,21.016 L28.019,25.32 L28.798,25.427 L33.462,34.14 Z" id="Shape" fill-opacity="0" fill="#000000" fill-rule="nonzero"></path>
            <path d="M74.813,64.06 C67.589,59.815 39.927,68.88 39.353,72.667 C38.779,76.454 36.247,28.61 41.466,23.995 L41.982,19.877 L43.199,20.033 L42.702,23.957 C46.898,23.791 60.89,22.759 68.338,16.314 L66.829,12.166 L67.978,11.747 L69.312,15.398 C69.711,14.989 70.091,14.561 70.441,14.113 L71.716,18.728 L72.407,43.4 L79.174,60.497 C79.174,60.497 82.037,68.305 74.813,64.06 Z" id="Shape" fill-opacity="0" fill="#000000" fill-rule="nonzero"></path>
        </g>
    </g>
</svg>