<?xml version="1.0" encoding="UTF-8"?>
<svg width="64px" height="83px" viewBox="0 0 64 83" version="1.1" xmlns="http://www.w3.org/2000/svg" xmlns:xlink="http://www.w3.org/1999/xlink">
    <!-- Generator: Sketch 44.1 (41455) - http://www.bohemiancoding.com/sketch -->
    <title>washer</title>
    <desc>Created with Sketch.</desc>
    <defs></defs>
    <g id="Page-1" stroke="none" stroke-width="1" fill="none" fill-rule="evenodd">
        <g id="washer" fill-rule="nonzero" fill="#000000">
            <path d="M0.5,2.7 C1,15.1 1.8,27.2 1.3,39.7 C0.7,53 1.3,66.5 1.3,79.9 L2.5,79.9 C2.5,66.9 2,53.9 2.5,40.9 C2.5,33.9 3.1,27.9 3,21.9 C3,14.9 2,8.9 1.7,1.9 C1.7,0.9 0.5,0.9 0.5,1.9 L0.5,2.7 Z" id="Shape"></path>
            <path d="M1.5,3.3 C6.5,3.3 11.7,2.3 16.8,1.9 C22.2,0.9 27.4,1.9 32.8,1.9 C38.2,1.9 43.4,4 49,3 C53,2.8 58.7,0 62.6,2 C63.3,2.6 63.9,1.5 63.2,1 C60.7,-0.3 57.8,0 55.2,0.7 C49,2 44,2 38,2 C32,2 26,0.2 20,0.3 C14,0.5 8,2 1.6,2 C0.8,2 0.8,3.3 1.6,3.3 L1.5,3.3 Z" id="Shape"></path>
            <path d="M62,2 C62,7.4 61.2,12.5 61.6,17.8 C61.9,23.6 61.8,29.3 61.6,35.1 C61.6,47.1 62.1,59.1 62.2,70.1 C62.2,73.1 62.2,75.1 62,77.1 C61.7,81.1 55.4,80.1 53,80.1 C47.3,81.1 41.7,81.1 36,81.1 C24.4,81.1 13,80.1 1.3,80.1 C0.5,80.1 0.5,82.1 1.3,81.1 C11,81.1 20.6,81.1 30.3,82.1 C35.3,83.1 40.3,83.1 45.3,82.1 C51,82.1 56.6,81.1 62.3,82.1 L62.8,82.1 C64.5,69.9 62.8,57.1 62.8,44.9 C63,37.9 63.2,30.9 63,23.6 C63,20.6 62.6,17.4 62.6,14.3 C62.6,10.8 63.3,7.3 63.3,4.3 C63.3,3.3 62,3.3 62,4.3 L62,2 Z M15.7,6 C10.7,8 11.7,19.7 17.9,16.8 C19.9,15.8 20.9,11.8 20.9,9.2 C19.9,6.7 16.9,4.2 14.9,6.4 C13.9,7 14.9,7.9 15.9,7.4 C17.9,5.4 18.9,9 18.9,10.7 C18.9,12.5 16.9,14.7 15.9,15.7 C12.9,17.1 11.9,13.5 11.9,11.7 C11.9,10.3 12.2,7.7 13.9,7.2 C14.5,7 14.2,5.8 13.4,6.2 L15.7,6 Z M37,12.5 C41.8,12.7 46.8,12.9 51.6,11.9 C52.4,10.9 52.1,9.9 51.3,9.9 C46.6,10.9 41.6,10.9 36.9,9.9 C35.9,9.9 35.9,10.9 36.9,10.9 L37,12.5 Z" id="Shape"></path>
            <path d="M1.7,23.3 C12.4,22.7 23.1,22.5 33.7,22.7 C39.2,22.7 44.7,23.2 50,22.9 C52,21.9 54.3,21.9 56.4,21.9 L62,21.9 C62.7,20.9 62.4,19.9 61.7,20.9 C59.4,21.9 57.3,20.9 55,20.9 L48.4,20.9 C43.6,20.9 38.7,20.9 33.9,19.9 C22.9,19.9 11.9,19.9 0.9,20.2 C-0.1,20.2 -0.1,21.2 0.9,21.2 L1.7,23.3 Z M31.2,28 C26.8,26.7 21.6,30.3 18.2,32.8 C14,36.1 12.6,40.4 12.2,45.6 C11.2,58.6 21.5,68.3 34.2,68.2 C45.8,68.2 52.6,54.2 51.7,44 C50.9,34.8 37.5,24.4 28.7,28.4 C28,28.7 28.7,29.8 29.3,29.4 C38,25.7 49.8,36.7 50.6,45.2 C51.4,54.9 44.2,66.2 34.3,67 C22.3,67.8 14,58.3 13.5,47 C13.3,42.3 14.7,37.8 18.2,34.5 C21.2,31.8 26.7,28 30.9,29.3 C30.9,29.6 31.9,28.3 30.9,28.1 L31.2,28 Z" id="Shape"></path>
            <path d="M13.5,49.6 C16,48.4 19.5,51.1 22.1,50.6 C26.1,50.3 28.1,46.6 32.1,49.3 C34.1,50.3 36.1,50.3 37.1,49.9 C41.1,48.9 42.1,46.9 45.1,47.9 L50.1,47.9 C51.1,47.9 51.1,46.9 50.1,46.9 C47.1,45.9 43.1,44.9 40.1,45.9 C38.1,46.9 35.1,47.9 33.1,45.9 C33.1,45.3 31.1,44.9 31.1,44.9 C28.1,44.9 26.1,46.9 23.1,47.4 C19.5,47.6 18.8,44.4 15.1,46.4 C14.4,46.4 15.1,47.4 15.8,47.4 L13.5,49.6 Z M19.7,41 C21.5,38 24.9,36.5 27.7,35 C28.5,34.5 27.9,33.4 27.2,33.8 C24.2,35.5 20.6,37.1 18.7,40.3 C18.2,40.9 19.3,41.6 19.7,40.9 L19.7,41 Z M31.5,33.5 L35.5,33.5 C36.3,33.5 36.3,32.3 35.5,32.3 L31.5,32.3 C30.7,32.3 30.7,33.5 31.5,33.5 Z M50.2,71 C50.2,72.5 50,74.4 50.9,75.6 C51.9,77.1 53.9,76.4 54.9,75.9 C54.9,74.9 54.9,73.9 53.9,73.9 C52.9,73.9 50.9,74.9 49.9,73.9 C48.9,72.9 49.4,70.9 49.4,69.9 C49.4,68.9 48.4,68.9 48.4,69.9 L50.2,71 Z" id="Shape"></path>
            <path d="M54,71 C53.7,72.4 53.7,73.7 53.7,75 C53.7,76 54.9,76 54.9,75 L54.9,71.3 C54.9,70.5 53.9,70.3 53.9,71 L54,71 Z" id="Shape"></path>
            <path d="M50.6,71.5 C52,72 53.6,72 55,72 C55.8,72 55.8,70.8 55,70.8 C53.7,70.8 52.3,70.8 51,70.4 C50.2,70.1 50,71.4 50.6,71.4 L50.6,71.5 Z" id="Shape"></path>
        </g>
    </g>
</svg>