<svg id="Layer_1" xmlns="http://www.w3.org/2000/svg" viewBox="0 0 74.7 95">
  <style>
    .st0{fill:#FDFFFC;}
  </style>
  <path class="st0" d="M5.5 8.7c.5 12.4 1.3 24.5.8 37-.6 13.3 0 26.8 0 40.2h1.2c0-13-.5-26 0-39 0-7 .6-13 .5-19 0-7-1-13-1.3-20 0-1-1.2-1-1.2 0z"/>
  <path class="st0" d="M6.5 9.3c5 0 10.2-1 15.3-1.4 5.4-1 10.6 0 16 0S48.4 10 54 9c4-.2 9.7-3 13.6-1 .7.6 1.3-.5.6-1-2.5-1.3-5.4-1-8-.3C54 8 49 8 43 8S31 6.2 25 6.3C19 6.5 13 8 6.6 8c-.8 0-.8 1.3 0 1.3z"/>
  <path class="st0" d="M67 8c0 5.4-.8 10.5-.4 15.8.3 5.8.2 11.5 0 17.3 0 12 .5 24 .6 35 0 3 0 5-.2 7-.3 4-6.6 3-9 3-5.7 1-11.3 1-17 1-11.6 0-23-1-34.7-1-.8 0-.8 2 0 1 9.7 0 19.3 0 29 1 5 1 10 1 15 0 5.7 0 11.3-1 17 0h.5c1.7-12.2 0-25 0-37.2.2-7 .4-14 .2-21.3 0-3-.4-6.2-.4-9.3 0-3.5.7-7 .7-10 0-1-1.3-1-1.3 0zm-46.3 4c-5 2-4 13.7 2.2 10.8 2-1 3-5 3-7.6-1-2.5-4-5-6-2.8-1 .6 0 1.5 1 1 2-2 3 1.6 3 3.3 0 1.8-2 4-3 5-3 1.4-4-2.2-4-4 0-1.4.3-4 2-4.5.6-.2.3-1.4-.5-1zM42 18.5c4.8.2 9.8.4 14.6-.6.8-1 .5-2-.3-2-4.7 1-9.7 1-14.4 0-1 0-1 1 0 1z"/>
  <path class="st0" d="M6.7 29.3c10.7-.6 21.4-.8 32-.6 5.5 0 11 .5 16.3.2 2-1 4.3-1 6.4-1H67c.7-1 .4-2-.3-1-2.3 1-4.4 0-6.7 0h-6.6c-4.8 0-9.7 0-14.5-1-11 0-22 0-33 .3-1 0-1 1 0 1zM36.2 34c-4.4-1.3-9.6 2.3-13 4.8-4.2 3.3-5.6 7.6-6 12.8-1 13 9.3 22.7 22 22.6 11.6 0 18.4-14 17.5-24.2-.8-9.2-14.2-19.6-23-15.6-.7.3 0 1.4.6 1 8.7-3.7 20.5 7.3 21.3 15.8.8 9.7-6.4 21-16.3 21.8-12 .8-20.3-8.7-20.8-20-.2-4.7 1.2-9.2 4.7-12.5 3-2.7 8.5-6.5 12.7-5.2 0 .3 1-1 0-1.2z"/>
  <path class="st0" d="M18.5 55.6c2.5-1.2 6 1.5 8.6 1 4-.3 6-4 10-1.3 2 1 4 1 5 .6 4-1 5-3 8-2h5c1 0 1-1 0-1-3-1-7-2-10-1-2 1-5 2-7 0 0-.6-2-1-2-1-3 0-5 2-8 2.5-3.6.2-4.3-3-8-1-.7 0 0 1 .7 1zm6.2-8.6c1.8-3 5.2-4.5 8-6 .8-.5.2-1.6-.5-1.2-3 1.7-6.6 3.3-8.5 6.5-.5.6.6 1.3 1 .6zm11.8-7.5h4c.8 0 .8-1.2 0-1.2h-4c-.8 0-.8 1.2 0 1.2zM55.2 77c0 1.5-.2 3.4.7 4.6 1 1.5 3 .8 4 .3 0-1 0-2-1-2s-3 1-4 0-.5-3-.5-4-1-1-1 0z"/>
  <path class="st0" d="M59 77c-.3 1.4-.3 2.7-.3 4 0 1 1.2 1 1.2 0v-3.7c0-.8-1-1-1-.3z"/>
  <path class="st0" d="M55.6 77.5c1.4.5 3 .5 4.4.5.8 0 .8-1.2 0-1.2-1.3 0-2.7 0-4-.4-.8-.3-1 1-.4 1z"/>
</svg>
