<?xml version="1.0" encoding="utf-8"?>
<!-- Generator: Adobe Illustrator 21.1.0, SVG Export Plug-In . SVG Version: 6.00 Build 0)  -->
<svg version="1.1" id="Layer_1" xmlns="http://www.w3.org/2000/svg" xmlns:xlink="http://www.w3.org/1999/xlink" x="0px" y="0px"
	 viewBox="0 0 74.7 95" style="enable-background:new 0 0 74.7 95;" xml:space="preserve">
<style type="text/css">
	.st0{fill:#FDFFFC;}
</style>
<g>
	<g>
		<g>
			<path class="st0" d="M5.5,8.7c0.5,12.4,1.3,24.5,0.8,37C5.7,59,6.3,72.5,6.3,85.9c0,0.8,1.2,0.8,1.2,0c0-12.8-0.5-25.6-0.1-38.3
				C7.6,41.3,8.1,35,8,28.7C7.9,22,7,15.4,6.7,8.7C6.7,7.9,5.5,7.9,5.5,8.7L5.5,8.7z"/>
		</g>
	</g>
	<g>
		<g>
			<path class="st0" d="M6.5,9.3c5.1,0,10.2-0.9,15.3-1.4C27.2,7.3,32.4,8,37.7,8.7C43.2,9.4,48.5,9.9,54,9.4
				c4.1-0.4,9.7-3.3,13.6-1c0.7,0.4,1.3-0.7,0.6-1.1c-2.5-1.4-5.4-0.8-8.1-0.4c-5.8,1-11.1,1.7-17,1.1c-6-0.5-11.8-1.8-17.8-1.7
				C19,6.5,12.8,8.1,6.5,8.1C5.7,8.1,5.7,9.3,6.5,9.3L6.5,9.3z"/>
		</g>
	</g>
	<g>
		<g>
			<path class="st0" d="M67,8.1c0.1,5.3-0.8,10.4-0.4,15.7c0.3,5.8,0.2,11.5,0.1,17.3c-0.1,11.6,0.4,23.2,0.5,34.8
				c0,2.3-0.1,4.6-0.2,6.9c-0.3,3.8-6.6,2.4-9.1,2.6c-5.6,0.4-11.2,1.2-16.8,0.9C29.4,85.7,18,85.2,6.3,85.4c-0.8,0-0.8,1.3,0,1.2
				c9.7-0.2,19.3-0.1,29,0.5c5.1,0.3,10,0.5,15.1,0.1c5.6-0.4,11.2-1.1,16.8-0.6c0.2,0,0.6-0.2,0.6-0.5c1.7-12.3,0-25,0.1-37.3
				c0.1-7.2,0.3-14.3,0.1-21.5c-0.1-3.1-0.4-6.2-0.4-9.3c-0.1-3.4,0.7-6.7,0.7-10C68.3,7.3,67,7.3,67,8.1L67,8.1z"/>
		</g>
	</g>
	<g>
		<g>
			<path class="st0" d="M20.7,12.1c-5.1,1.8-3.9,13.6,2.2,10.7c2.4-1.1,3.9-5.1,3.2-7.6c-0.7-2.5-3.4-5.1-5.7-2.8
				c-0.6,0.6,0.3,1.5,0.9,0.9c1.9-2,3.8,1.7,3.7,3.4c-0.1,1.8-1.2,4-2.8,4.9c-2.4,1.5-3.6-2.1-3.5-3.8c0.1-1.5,0.7-4,2.3-4.6
				C21.8,13,21.5,11.8,20.7,12.1L20.7,12.1z"/>
		</g>
	</g>
	<g>
		<g>
			<path class="st0" d="M41.9,18.5c4.9,0.2,9.9,0.4,14.7-0.6c0.8-0.2,0.5-1.4-0.3-1.2c-4.7,1-9.7,0.8-14.4,0.6
				C41.1,17.2,41.1,18.5,41.9,18.5L41.9,18.5z"/>
		</g>
	</g>
	<g>
		<g>
			<path class="st0" d="M6.7,29.3c10.7-0.6,21.4-0.8,32.1-0.6c5.4,0.1,10.8,0.5,16.2,0.2c2.1-0.1,4.3-0.4,6.4-0.3
				c2.1,0,3.6,0.5,5.6-0.2c0.7-0.3,0.4-1.5-0.3-1.2c-2.3,0.9-4.4,0.2-6.7,0.2c-2.2,0-4.4,0.3-6.6,0.4c-4.8,0.2-9.7-0.2-14.5-0.3
				c-10.7-0.1-21.4,0.1-32.1,0.6C5.9,28.1,5.9,29.3,6.7,29.3L6.7,29.3z"/>
		</g>
	</g>
	<g>
		<g>
			<path class="st0" d="M36.2,34.1c-4.4-1.4-9.6,2.2-12.9,4.7c-4.3,3.3-5.7,7.6-6.1,12.8c-1,13.1,9.3,22.7,21.9,22.6
				C50.8,74.1,57.6,60.3,56.7,50c-0.8-9.2-14.2-19.6-23-15.6c-0.7,0.3-0.1,1.4,0.6,1.1c8.7-3.8,20.5,7.2,21.3,15.7
				c0.8,9.7-6.4,21-16.3,21.8C27.3,73.8,19,64.3,18.5,53.1c-0.2-4.8,1.2-9.3,4.7-12.6c3-2.7,8.5-6.5,12.7-5.2
				C36.7,35.6,37,34.3,36.2,34.1L36.2,34.1z"/>
		</g>
	</g>
	<g>
		<g>
			<path class="st0" d="M18.5,55.6c2.5-1.2,5.9,1.5,8.6,1.1c3.8-0.4,5.4-4,10-1.4c1.8,1,3.1,1.1,5,0.6c3.1-0.9,4.6-2.1,8-1.5
				c1.6,0.3,3.2,0.6,4.8,0.7c0.8,0.1,0.8-1.2,0-1.2c-3.6-0.3-7.2-1.8-10.7-0.5c-2.5,0.9-5,1.9-7.5,0.4c-0.6-0.4-1.8-0.8-2.5-0.8
				c-3.1,0.1-5.2,2.3-8.2,2.7c-3.8,0.4-4.5-2.8-8.2-1.1C17.1,54.9,17.8,56,18.5,55.6L18.5,55.6z"/>
		</g>
	</g>
	<g>
		<g>
			<path class="st0" d="M24.7,46.9c1.8-2.9,5.2-4.4,8.1-6c0.7-0.4,0.1-1.5-0.6-1.1c-3.1,1.7-6.6,3.3-8.5,6.5
				C23.2,46.9,24.3,47.6,24.7,46.9L24.7,46.9z"/>
		</g>
	</g>
	<g>
		<g>
			<path class="st0" d="M36.5,39.5c1.3,0,2.6,0,4,0c0.8,0,0.8-1.2,0-1.2c-1.3,0-2.6,0-4,0C35.7,38.2,35.7,39.5,36.5,39.5L36.5,39.5z
				"/>
		</g>
	</g>
	<g>
		<g>
			<path class="st0" d="M55.2,77.1c0,1.4-0.2,3.3,0.7,4.5c1,1.5,3.1,0.8,4.5,0.3c0.7-0.3,0.4-1.5-0.3-1.2c-0.9,0.4-2.7,1.2-3.3,0
				c-0.5-1-0.3-2.5-0.3-3.5C56.4,76.3,55.2,76.3,55.2,77.1L55.2,77.1z"/>
		</g>
	</g>
	<g>
		<g>
			<path class="st0" d="M58.9,77c-0.2,1.4-0.2,2.7-0.2,4.1c0,0.8,1.2,0.8,1.2,0c0-1.3,0-2.5,0.2-3.8C60.3,76.5,59.1,76.2,58.9,77
				L58.9,77z"/>
		</g>
	</g>
	<g>
		<g>
			<path class="st0" d="M55.6,77.5C57,78,58.5,78,60,78c0.8,0,0.8-1.2,0-1.2c-1.3,0-2.7,0-4-0.4C55.2,76.1,54.9,77.3,55.6,77.5
				L55.6,77.5z"/>
		</g>
	</g>
</g>
</svg>
