<svg width="200" height="200" viewBox="0 0 200 200" xmlns="http://www.w3.org/2000/svg" xmlns:xlink="http://www.w3.org/1999/xlink">
  <title>
    Bleaching3
  </title>
  <defs>
    <path id="a" d="M0 177h158.3V0H0z"/>
  </defs>
  <g transform="translate(21 11)" fill="none" fill-rule="evenodd">
    <mask id="b" fill="#fff">
      <use xlink:href="#a"/>
    </mask>
    <path d="M88 92.3l42.2-73c2.2-3.7 1-8.4-2.8-10.6-3.7-2-8.4-.8-10.6 3l-37.6 65-37.7-65c-2-3.8-7-5-10.6-3-4 2.2-5 7-3 10.6l42 73-42 73c-2 3.7-1 8.4 2.7 10.5 1.2.7 2.5 1 3.8 1 2.7 0 5.3-1.3 6.7-3.8L79 107.7l37.6 65.3c1.5 2.5 4 4 6.7 4 1.4 0 2.7-.5 4-1.2 3.6-2 5-6.8 2.7-10.5l-42-73zm69 35l-41.5-72-9 15.3 30.7 53h-25l9 15.6h29.4c4.3 0 7.7-3.5 7.7-7.7 0-1.6-.4-3-1.2-4.2zm-81-3.6l-9 15.5h24.4l-9-15.5H76zm3-100.5L91.7 45l9-15.6L85.7 4c-1.4-2.5-4-4-6.7-4s-5 1.5-6.5 4L57.7 29.3l9 15.5L79.2 23zM46 123.7H21l30.6-53-9-15.5L1 127.6c-1.3 2.4-1.3 5.3 0 7.7 1.4 2.4 4 4 6.7 4h29.5l9-15.6z" fill="#221F20" mask="url(#b)"/>
  </g>
</svg>
