<?xml version="1.0" encoding="UTF-8"?>
<svg width="200px" height="200px" viewBox="0 0 200 200" version="1.1" xmlns="http://www.w3.org/2000/svg" xmlns:xlink="http://www.w3.org/1999/xlink">
    <!-- Generator: Sketch 44.1 (41455) - http://www.bohemiancoding.com/sketch -->
    <title>Bleaching3</title>
    <desc>Created with Sketch.</desc>
    <defs>
        <polygon id="path-1" points="0 176.864 158.348 176.864 158.348 0 0 0"></polygon>
    </defs>
    <g id="Bleaching" stroke="none" stroke-width="1" fill="none" fill-rule="evenodd">
        <g id="Bleaching3">
            <g id="Page-1" transform="translate(21.000000, 11.000000)">
                <mask id="mask-2" fill="white">
                    <use xlink:href="#path-1"></use>
                </mask>
                <g id="Clip-2"></g>
                <path d="M88.0985,92.282 L130.2345,19.302 C132.3695,15.602 131.1025,10.874 127.4035,8.738 C123.7045,6.602 118.9755,7.869 116.8395,11.569 L79.1695,76.816 L41.4985,11.569 C39.3625,7.869 34.6335,6.603 30.9345,8.738 C27.2355,10.874 25.9685,15.602 28.1045,19.302 L70.2405,92.282 L28.1045,165.262 C25.9695,168.961 27.2365,173.69 30.9355,175.827 C32.1525,176.529 33.4825,176.864 34.7945,176.864 C37.4675,176.864 40.0665,175.476 41.4985,172.996 L79.1695,107.748 L116.8395,172.996 C118.2725,175.476 120.8715,176.864 123.5435,176.864 C124.8555,176.864 126.1855,176.529 127.4035,175.827 C131.1025,173.69 132.3695,168.961 130.2335,165.262 L88.0985,92.282 Z M157.1095,127.262 L115.4825,55.163 L106.5525,70.63 L137.2105,123.73 L112.2075,123.73 L121.1375,139.196 L150.6045,139.196 L150.6155,139.196 C154.8865,139.196 158.3485,135.734 158.3485,131.463 C158.3485,129.914 157.8925,128.472 157.1095,127.262 L157.1095,127.262 Z M75.8955,123.73 L66.9655,139.196 L91.3725,139.196 L82.4425,123.73 L75.8955,123.73 Z M79.1695,23.199 L91.6705,44.852 L100.5995,29.386 L85.8665,3.867 C84.4845,1.473 81.9315,0 79.1695,0 C76.4065,0 73.8535,1.473 72.4725,3.867 L57.7385,29.386 L66.6675,44.852 L79.1695,23.199 Z M46.1305,123.73 L21.1275,123.73 L51.7855,70.629 L42.8555,55.163 L1.0355,127.596 C-0.3455,129.99 -0.3455,132.936 1.0355,135.33 C2.4175,137.722 4.9705,139.196 7.7335,139.196 L37.2015,139.196 L46.1305,123.73 Z" id="Fill-1" fill="#221F20" mask="url(#mask-2)"></path>
            </g>
        </g>
    </g>
</svg>