<svg width="200" height="200" viewBox="0 0 200 200" xmlns="http://www.w3.org/2000/svg" xmlns:xlink="http://www.w3.org/1999/xlink">
  <title>
    Bleaching2
  </title>
  <defs>
    <path id="a" d="M0 139.2h158.3V0H0z"/>
  </defs>
  <g transform="translate(20 30)" fill="none" fill-rule="evenodd">
    <mask id="b" fill="#fff">
      <use xlink:href="#a"/>
    </mask>
    <path d="M97 123.7L117 89l20.2 34.7H97zm-38 0L98 56l10.2 17.4-29 50.3H59zm-38 0L79.3 23.2l10 17.4-48 83h-20zm136 3.6L86 4c-1.5-2.5-4-4-6.8-4S74 1.5 72.5 4L1 127.5c-1.3 2.4-1.3 5.3 0 7.7 1.4 2.4 4 4 6.7 4h143c4.2 0 7.6-3.6 7.6-7.8 0-1.6-.4-3-1.2-4.2z" fill="#221F20" mask="url(#b)"/>
  </g>
</svg>
