<svg width="200" height="200" viewBox="0 0 200 200" xmlns="http://www.w3.org/2000/svg" xmlns:xlink="http://www.w3.org/1999/xlink">
  <title>
    Professional4
  </title>
  <defs>
    <path id="a" d="M0 129h129V0H0z"/>
  </defs>
  <g transform="translate(36 36)" fill="none" fill-rule="evenodd">
    <mask id="b" fill="#fff">
      <use xlink:href="#a"/>
    </mask>
    <path d="M78 61c-.8 5-1.7 10-2.3 14.6l-2.3-14L70 44H60l-3.5 17-2.8 15c-1-4.5-1.7-10-2.7-15l-3-17H38l9.8 41.6H58l4-18c1-4.2 1.8-8 2.5-12.8.6 4.7 1.3 8.6 2 12.8l3.6 18h10.6L91 44h-9.5L78 61zm-13.6 52.4c-27 0-49-22-49-49s22-49 49-49 49 22 49 49-22 49-49 49zM64.4 0C29 0 0 29 0 64.4 0 100 29 129 64.4 129c35.6 0 64.5-29 64.5-64.6C129 29 100 0 64 0z" fill="#221F20" mask="url(#b)"/>
  </g>
</svg>
