<svg width="200" height="200" viewBox="0 0 200 200" xmlns="http://www.w3.org/2000/svg" xmlns:xlink="http://www.w3.org/1999/xlink">
  <title>
    Professional2
  </title>
  <defs>
    <path id="a" d="M0 129h129V0H0z"/>
  </defs>
  <g transform="translate(36 36)" fill="none" fill-rule="evenodd">
    <mask id="b" fill="#fff">
      <use xlink:href="#a"/>
    </mask>
    <path d="M64.4 113.4c-27 0-49-22-49-49s22-49 49-49 49 22 49 49-22 49-49 49zM64.4 0C29 0 0 29 0 64.4 0 100 29 129 64.4 129c35.6 0 64.5-29 64.5-64.6C129 29 100 0 64.2 0zm-12 85.8h9.3V69h15v-7.7h-15v-9.5h16V44H52.3v42z" fill="#221F20" mask="url(#b)"/>
  </g>
</svg>
