<?xml version="1.0" encoding="UTF-8"?>
<svg width="200px" height="200px" viewBox="0 0 200 200" version="1.1" xmlns="http://www.w3.org/2000/svg" xmlns:xlink="http://www.w3.org/1999/xlink">
    <!-- Generator: Sketch 44.1 (41455) - http://www.bohemiancoding.com/sketch -->
    <title>Professional1</title>
    <desc>Created with Sketch.</desc>
    <defs></defs>
    <g id="Professional" stroke="none" stroke-width="1" fill="none" fill-rule="evenodd">
        <g id="Professional1" fill="#221F20">
            <g id="Page-1" transform="translate(36.000000, 36.000000)">
                <path d="M63.0503,63.7991 C61.6893,63.7991 60.6993,63.7371 59.8963,63.5521 L59.8963,51.2411 C60.5763,51.0551 61.8753,50.9321 63.7933,50.9321 C68.5563,50.9321 71.1543,53.2211 71.1543,57.0571 C71.1543,61.2641 68.0623,63.7991 63.0503,63.7991 M76.1033,47.1581 C73.3203,44.8691 69.1123,43.7561 63.2983,43.7561 C57.5443,43.7561 53.4623,44.1271 50.5543,44.6211 L50.5543,85.7611 L59.8963,85.7611 L59.8963,70.7901 C60.7613,70.9761 61.8753,71.0371 63.1123,71.0371 C68.6803,71.0371 73.5053,69.6141 76.7223,66.6461 C79.1963,64.3571 80.4953,60.8921 80.4953,56.7471 C80.4953,52.6641 78.7633,49.1991 76.1033,47.1581 M64.4433,113.4211 C37.4373,113.4211 15.4663,91.4491 15.4663,64.4441 C15.4663,37.4381 37.4373,15.4671 64.4433,15.4671 C91.4483,15.4671 113.4193,37.4381 113.4193,64.4441 C113.4193,91.4491 91.4483,113.4211 64.4433,113.4211 M64.4433,0.0001 C28.9093,0.0001 0.0003,28.9101 0.0003,64.4441 C0.0003,99.9781 28.9093,128.8871 64.4433,128.8871 C99.9763,128.8871 128.8853,99.9781 128.8853,64.4441 C128.8853,28.9101 99.9763,0.0001 64.4433,0.0001" id="Fill-1"></path>
            </g>
        </g>
    </g>
</svg>