<?xml version="1.0" encoding="UTF-8"?>
<svg width="200px" height="200px" viewBox="0 0 200 200" version="1.1" xmlns="http://www.w3.org/2000/svg" xmlns:xlink="http://www.w3.org/1999/xlink">
    <!-- Generator: Sketch 44.1 (41455) - http://www.bohemiancoding.com/sketch -->
    <title>Professional3</title>
    <desc>Created with Sketch.</desc>
    <defs></defs>
    <g id="Professional" stroke="none" stroke-width="1" fill="none" fill-rule="evenodd">
        <g id="Professional3" fill="#221F20">
            <g id="Page-1" transform="translate(15.000000, 36.000000)">
                <path d="M23.4521,44.0335 C21.3051,50.4505 20.1391,57.3125 20.1391,64.4435 C20.1391,71.5745 21.3051,78.4375 23.4521,84.8535 L37.2141,76.9095 C36.1651,72.9275 35.6041,68.7505 35.6041,64.4435 C35.6041,60.1375 36.1651,55.9605 37.2141,51.9785 L23.4521,44.0335 Z M145.7091,84.8535 C147.8581,78.4375 149.0241,71.5745 149.0241,64.4435 C149.0241,57.3125 147.8581,50.4505 145.7091,44.0335 L131.9481,51.9785 C132.9971,55.9605 133.5571,60.1375 133.5571,64.4435 C133.5571,68.7505 132.9971,72.9275 131.9481,76.9095 L145.7091,84.8535 Z M84.5811,15.4675 C98.0021,15.4675 110.1791,20.8955 119.0341,29.6705 L132.7881,21.7285 C120.9741,8.4105 103.7431,0.0005 84.5811,0.0005 C65.4201,0.0005 48.1881,8.4105 36.3741,21.7295 L50.1281,29.6705 C58.9831,20.8955 71.1591,15.4675 84.5811,15.4675 L84.5811,15.4675 Z M84.5811,113.4215 C71.1591,113.4215 58.9831,107.9925 50.1281,99.2185 L36.3741,107.1595 C48.1881,120.4775 65.4201,128.8875 84.5811,128.8875 C103.7431,128.8875 120.9741,120.4775 132.7881,107.1595 L119.0341,99.2185 C110.1791,107.9925 98.0021,113.4215 84.5811,113.4215 L84.5811,113.4215 Z M165.2951,102.1155 L100.0471,64.4435 L165.2951,26.7725 C168.9951,24.6375 170.2611,19.9075 168.1261,16.2095 C165.9891,12.5115 161.2611,11.2435 157.5611,13.3795 L84.5811,55.5145 L11.6011,13.3805 C7.9021,11.2445 3.1731,12.5115 1.0381,16.2115 C0.3341,17.4285 0.0001,18.7585 0.0001,20.0695 C0.0001,22.7415 1.3881,25.3415 3.8681,26.7735 L69.1151,64.4435 L3.8681,102.1155 C1.3881,103.5475 0.0001,106.1465 0.0001,108.8185 C0.0001,110.1315 0.3341,111.4605 1.0381,112.6795 C3.1731,116.3775 7.9021,117.6445 11.6011,115.5095 L84.5811,73.3735 L157.5611,115.5095 C161.2611,117.6445 165.9891,116.3785 168.1261,112.6795 C170.2621,108.9795 168.9951,104.2505 165.2951,102.1155 L165.2951,102.1155 Z" id="Fill-1"></path>
            </g>
        </g>
    </g>
</svg>