<?xml version="1.0" encoding="UTF-8"?>
<svg width="200px" height="200px" viewBox="0 0 200 200" version="1.1" xmlns="http://www.w3.org/2000/svg" xmlns:xlink="http://www.w3.org/1999/xlink">
    <!-- Generator: Sketch 44.1 (41455) - http://www.bohemiancoding.com/sketch -->
    <title>Professional4</title>
    <desc>Created with Sketch.</desc>
    <defs>
        <polygon id="path-1" points="0.0003 128.887 128.8853 128.887 128.8853 0.0004 0.0003 0.0004"></polygon>
    </defs>
    <g id="Professional" stroke="none" stroke-width="1" fill="none" fill-rule="evenodd">
        <g id="Professional4">
            <g id="Page-1" transform="translate(36.000000, 36.000000)">
                <mask id="mask-2" fill="white">
                    <use xlink:href="#path-1"></use>
                </mask>
                <g id="Clip-2"></g>
                <path d="M78.1143,61.0784 C77.2483,66.0884 76.3203,70.9754 75.7023,75.6154 L75.5783,75.6154 C74.9593,70.9754 74.2793,66.5214 73.3503,61.6344 L70.0103,44.0654 L59.9883,44.0654 L56.4633,61.0784 C55.4113,66.2744 54.4213,71.2844 53.7403,75.8624 L53.6163,75.8624 C52.9363,71.5944 52.0703,66.2124 51.1413,61.2014 L47.9873,44.0654 L37.9033,44.0654 L47.8013,85.7614 L58.1333,85.7614 L62.0923,67.8204 C63.0823,63.6134 63.7613,59.6544 64.5053,54.9534 L64.6293,54.9534 C65.1233,59.7174 65.8033,63.6134 66.6073,67.8204 L70.1343,85.7614 L80.3423,85.7614 L91.1053,44.0654 L81.5163,44.0654 L78.1143,61.0784 Z M64.4433,113.4214 C37.4383,113.4214 15.4673,91.4494 15.4673,64.4434 C15.4673,37.4384 37.4383,15.4674 64.4433,15.4674 C91.4493,15.4674 113.4203,37.4384 113.4203,64.4434 C113.4203,91.4494 91.4493,113.4214 64.4433,113.4214 L64.4433,113.4214 Z M64.4433,0.0004 C28.9103,0.0004 0.0003,28.9104 0.0003,64.4434 C0.0003,99.9774 28.9103,128.8874 64.4433,128.8874 C99.9773,128.8874 128.8853,99.9774 128.8853,64.4434 C128.8853,28.9104 99.9773,0.0004 64.4433,0.0004 L64.4433,0.0004 Z" id="Fill-1" fill="#221F20" mask="url(#mask-2)"></path>
            </g>
        </g>
    </g>
</svg>