<svg width="200" height="200" viewBox="0 0 200 200" xmlns="http://www.w3.org/2000/svg">
  <title>
    Professional1
  </title>
  <path d="M99 99.8c-1.3 0-2.3 0-3-.2V87.2c.6 0 2-.3 3.8-.3 4.8 0 7.4 2 7.4 6s-3 6.3-8 6.3m13-16.6c-3-2.3-7-3.4-13-3.4-5.7 0-9.7.3-12.6.8v41.3H96v-15c.8.2 2 .2 3 .2 5.7 0 10.5-1.6 13.7-4.6 2.5-2.3 3.8-5.8 3.8-10 0-4-1.7-7.5-4.4-9.5M101 149c-27 0-49-22-49-49s22-49 49-49 49 22 49 49-22 49-49 49m0-113.3C65 36 36 65 36 100.2 36 136 65 165 100.4 165c35.6 0 64.5-29 64.5-64.6C165 65 136 36 100 36" fill="#221F20" fill-rule="evenodd"/>
</svg>
