<svg width="200" height="200" viewBox="0 0 200 200" xmlns="http://www.w3.org/2000/svg" xmlns:xlink="http://www.w3.org/1999/xlink">
  <title>
    Drying8
  </title>
  <defs>
    <path id="a" d="M144.4 144.4V0H0v144.4z"/>
  </defs>
  <g fill="none" fill-rule="evenodd">
    <g transform="translate(28 27)">
      <mask id="b" fill="#fff">
        <use xlink:href="#a"/>
      </mask>
      <path d="M129 41.6c-6-11-15.2-20.2-26.2-26h26v26zm0 87.3h-26.2c11-6 20-16 26-27v26zM23 72c0-27 22-49 49-49s49 22 49 49-22 49-49 49-49-22-49-49zm-7.5 57v-26.2c6 11 15 20 26 26h-26zm0-113.5h26c-11 6-20 15-26 26v-26zM136.5 0H7.8C3.5 0 0 3.5 0 7.7v129c0 4.2 3.5 7.7 7.7 7.7h129c4.2 0 7.7-3.5 7.7-7.8V7.6c0-4-3.5-7.6-7.8-7.6z" fill="#221F20" mask="url(#b)"/>
    </g>
    <path d="M38.5 79C36.3 85.5 35 92.3 35 99.4c0 7.2 1.3 14 3.5 20.5l13.7-8c-1-4-1.6-9-1.6-13 0-4.7.6-8.8 1.6-12.8l-13.7-8zm122.2 41c2.2-6.6 3.3-13.4 3.3-20.6 0-7-1-14-3.3-20.4L147 87c1 4 1.6 8 1.6 12.4S148 108 147 112l13.7 8zm-61-69.5C113 50.5 125 56 134 64.7l13.8-8C136 43.4 118.8 35 99.6 35c-19.2 0-36.4 8.4-48.2 21.7l13.7 8c9-8.7 22-14.2 35-14.2zm0 98C86 148.5 74 143 65 134l-13.6 8c11.8 13.3 29 21.7 48.2 21.7 19 0 36.4-8.5 48.2-21.8l-13.8-8c-8.8 8-21 14-34.4 14zm80.6-11.4L115 100l65.3-38c3.7-2.3 5-7 2.8-10.7-2-3.7-6-5-10-2.8l-73 42-73-42c-3.3-2.2-8-1-10.2 2.8-.6 1.2-1 2.6-1 4 0 2.5 1.5 5 4 6.6l65 37L19 137c-2.6 1.5-4 4-4 6.8 0 1.3.3 2.7 1 4 2.2 3.6 7 4.8 10.6 2.7l73-42 73 42c3.7 2 8.4 1 10.5-2.8 3-3.7 1-8.4-2-10.6z" fill="#221F20"/>
  </g>
</svg>
