<?xml version="1.0" encoding="UTF-8"?>
<svg width="200px" height="200px" viewBox="0 0 200 200" version="1.1" xmlns="http://www.w3.org/2000/svg" xmlns:xlink="http://www.w3.org/1999/xlink">
    <!-- Generator: Sketch 44.1 (41455) - http://www.bohemiancoding.com/sketch -->
    <title>Drying1</title>
    <desc>Created with Sketch.</desc>
    <defs>
        <polygon id="path-1" points="144.352 144.3517 144.352 0 0.0003 0 0.0003 144.3517"></polygon>
    </defs>
    <g id="Drying" stroke="none" stroke-width="1" fill="none" fill-rule="evenodd">
        <g id="Drying1">
            <g id="Page-1" transform="translate(27.000000, 27.000000)">
                <mask id="mask-2" fill="white">
                    <use xlink:href="#path-1"></use>
                </mask>
                <g id="Clip-2"></g>
                <path d="M72.1763,61.8657 C66.4823,61.8657 61.8653,66.4807 61.8653,72.1767 C61.8653,77.8707 66.4823,82.4867 72.1763,82.4867 C77.8713,82.4867 82.4873,77.8707 82.4873,72.1767 C82.4873,66.4807 77.8713,61.8657 72.1763,61.8657 L72.1763,61.8657 Z M113.2973,72.1767 C113.2973,66.4807 108.6803,61.8657 102.9873,61.8657 C97.2923,61.8657 92.6753,66.4807 92.6753,72.1767 C92.6753,77.8707 97.2923,82.4867 102.9873,82.4867 C108.6803,82.4867 113.2973,77.8707 113.2973,72.1767 L113.2973,72.1767 Z M128.8853,41.5907 C122.9073,30.5517 113.8013,21.4437 102.7603,15.4657 L128.8853,15.4657 L128.8853,41.5907 Z M128.8853,128.8867 L102.7623,128.8867 C113.8013,122.9077 122.9073,113.8017 128.8853,102.7617 L128.8853,128.8867 Z M23.1993,72.1767 C23.1993,45.1697 45.1703,23.1987 72.1763,23.1987 C99.1813,23.1987 121.1523,45.1697 121.1523,72.1767 C121.1523,99.1807 99.1813,121.1527 72.1763,121.1527 C45.1703,121.1527 23.1993,99.1807 23.1993,72.1767 L23.1993,72.1767 Z M15.4663,128.8867 L15.4663,102.7617 C21.4443,113.8017 30.5513,122.9077 41.5903,128.8867 L15.4663,128.8867 Z M15.4663,15.4657 L41.5913,15.4657 C30.5513,21.4437 21.4443,30.5517 15.4663,41.5907 L15.4663,15.4657 Z M136.6183,-0.0003 L7.7333,-0.0003 C3.4623,-0.0003 0.0003,3.4617 0.0003,7.7327 L0.0003,136.6187 C0.0003,140.8887 3.4623,144.3517 7.7333,144.3517 L136.6183,144.3517 C140.8903,144.3517 144.3523,140.8887 144.3523,136.6187 L144.3523,7.7327 C144.3523,3.4617 140.8903,-0.0003 136.6183,-0.0003 L136.6183,-0.0003 Z M41.3663,61.8657 C35.6723,61.8657 31.0553,66.4807 31.0553,72.1767 C31.0553,77.8707 35.6723,82.4867 41.3663,82.4867 C47.0613,82.4867 51.6773,77.8707 51.6773,72.1767 C51.6773,66.4807 47.0613,61.8657 41.3663,61.8657 L41.3663,61.8657 Z" id="Fill-1" fill="#221F20" mask="url(#mask-2)"></path>
            </g>
        </g>
    </g>
</svg>