<?xml version="1.0" encoding="UTF-8"?>
<svg width="200px" height="200px" viewBox="0 0 200 200" version="1.1" xmlns="http://www.w3.org/2000/svg" xmlns:xlink="http://www.w3.org/1999/xlink">
    <!-- Generator: Sketch 44.1 (41455) - http://www.bohemiancoding.com/sketch -->
    <title>Drying8</title>
    <desc>Created with Sketch.</desc>
    <defs>
        <polygon id="path-1" points="144.352 144.3517 144.352 0 0.0003 0 0.0003 144.3517"></polygon>
    </defs>
    <g id="Drying" stroke="none" stroke-width="1" fill="none" fill-rule="evenodd">
        <g id="Drying8">
            <g id="Page-1" transform="translate(28.000000, 27.000000)">
                <mask id="mask-2" fill="white">
                    <use xlink:href="#path-1"></use>
                </mask>
                <g id="Clip-2"></g>
                <path d="M128.8863,41.5907 C122.9073,30.5517 113.8013,21.4437 102.7613,15.4657 L128.8863,15.4657 L128.8863,41.5907 Z M128.8863,128.8857 L102.7613,128.8857 C113.8013,122.9077 122.9073,113.8017 128.8863,102.7617 L128.8863,128.8857 Z M23.1993,72.1767 C23.1993,45.1697 45.1703,23.1977 72.1763,23.1977 C99.1813,23.1977 121.1533,45.1697 121.1533,72.1767 C121.1533,99.1807 99.1813,121.1517 72.1763,121.1517 C45.1703,121.1517 23.1993,99.1807 23.1993,72.1767 L23.1993,72.1767 Z M15.4663,128.8857 L15.4663,102.7617 C21.4453,113.8017 30.5513,122.9077 41.5913,128.8857 L15.4663,128.8857 Z M15.4663,15.4657 L41.5913,15.4657 C30.5513,21.4437 21.4453,30.5517 15.4663,41.5907 L15.4663,15.4657 Z M136.6193,-0.0003 L7.7333,-0.0003 C3.4623,-0.0003 0.0003,3.4617 0.0003,7.7327 L0.0003,136.6187 C0.0003,140.8887 3.4623,144.3517 7.7333,144.3517 L136.6193,144.3517 C140.8903,144.3517 144.3523,140.8887 144.3523,136.6187 L144.3523,7.7327 C144.3523,3.4617 140.8903,-0.0003 136.6193,-0.0003 L136.6193,-0.0003 Z" id="Fill-1" fill="#221F20" mask="url(#mask-2)"></path>
            </g>
            <path d="M38.4521,79.0335 C36.3051,85.4505 35.1391,92.3125 35.1391,99.4435 C35.1391,106.5745 36.3051,113.4375 38.4521,119.8535 L52.2141,111.9095 C51.1651,107.9275 50.6041,103.7505 50.6041,99.4435 C50.6041,95.1375 51.1651,90.9605 52.2141,86.9785 L38.4521,79.0335 Z M160.7091,119.8535 C162.8581,113.4375 164.0241,106.5745 164.0241,99.4435 C164.0241,92.3125 162.8581,85.4505 160.7091,79.0335 L146.9481,86.9785 C147.9971,90.9605 148.5571,95.1375 148.5571,99.4435 C148.5571,103.7505 147.9971,107.9275 146.9481,111.9095 L160.7091,119.8535 Z M99.5811,50.4675 C113.0021,50.4675 125.1791,55.8955 134.0341,64.6705 L147.7881,56.7285 C135.9741,43.4105 118.7431,35.0005 99.5811,35.0005 C80.4201,35.0005 63.1881,43.4105 51.3741,56.7295 L65.1281,64.6705 C73.9831,55.8955 86.1591,50.4675 99.5811,50.4675 L99.5811,50.4675 Z M99.5811,148.4215 C86.1591,148.4215 73.9831,142.9925 65.1281,134.2185 L51.3741,142.1595 C63.1881,155.4775 80.4201,163.8875 99.5811,163.8875 C118.7431,163.8875 135.9741,155.4775 147.7881,142.1595 L134.0341,134.2185 C125.1791,142.9925 113.0021,148.4215 99.5811,148.4215 L99.5811,148.4215 Z M180.2951,137.1155 L115.0471,99.4435 L180.2951,61.7725 C183.9951,59.6375 185.2611,54.9075 183.1261,51.2095 C180.9891,47.5115 176.2611,46.2435 172.5611,48.3795 L99.5811,90.5145 L26.6011,48.3805 C22.9021,46.2445 18.1731,47.5115 16.0381,51.2115 C15.3341,52.4285 15.0001,53.7585 15.0001,55.0695 C15.0001,57.7415 16.3881,60.3415 18.8681,61.7735 L84.1151,99.4435 L18.8681,137.1155 C16.3881,138.5475 15.0001,141.1465 15.0001,143.8185 C15.0001,145.1315 15.3341,146.4605 16.0381,147.6795 C18.1731,151.3775 22.9021,152.6445 26.6011,150.5095 L99.5811,108.3735 L172.5611,150.5095 C176.2611,152.6445 180.9891,151.3785 183.1261,147.6795 C185.2621,143.9795 183.9951,139.2505 180.2951,137.1155 L180.2951,137.1155 Z" id="Fill-1" fill="#221F20"></path>
        </g>
    </g>
</svg>