<?xml version="1.0" encoding="UTF-8"?>
<svg width="200px" height="200px" viewBox="0 0 200 200" version="1.1" xmlns="http://www.w3.org/2000/svg" xmlns:xlink="http://www.w3.org/1999/xlink">
    <!-- Generator: Sketch 44.1 (41455) - http://www.bohemiancoding.com/sketch -->
    <title>Drying14</title>
    <desc>Created with Sketch.</desc>
    <defs>
        <polygon id="path-1" points="8.42342342e-05 58.8095143 186.898919 58.8095143 186.898919 8.42857143e-05 8.42342342e-05 8.42857143e-05"></polygon>
    </defs>
    <g id="Drying" stroke="none" stroke-width="1" fill="none" fill-rule="evenodd">
        <g id="Drying14">
            <g id="Page-1" transform="translate(7.000000, 71.000000)">
                <mask id="mask-2" fill="white">
                    <use xlink:href="#path-1"></use>
                </mask>
                <g id="Clip-2"></g>
                <path d="M173.871336,45.77397 L154.959909,45.77397 C154.929584,45.7731271 151.70594,45.3795129 144.932665,36.7511843 C142.841972,34.0885986 141.019985,31.4040986 139.731201,29.4039986 C140.998084,27.43677 142.785535,24.8045271 144.850116,22.1655414 C151.678143,13.4352271 154.929584,13.0373986 154.952327,13.0357129 L173.871336,13.0357129 L173.871336,45.77397 Z M119.307769,36.6449843 C112.536179,45.3011271 109.283053,45.7655414 109.199661,45.77397 L77.7011113,45.77397 C77.6699446,45.7731271 74.4471428,45.3795129 67.673868,36.7511843 C65.5831743,34.0885986 63.7611878,31.4049414 62.4724041,29.4056843 C63.7611878,27.4047414 65.5831743,24.7219271 67.673868,22.0593414 C74.4471428,13.43017 77.6699446,13.0373986 77.6926878,13.0357129 L109.197976,13.0357129 C109.2283,13.0373986 112.451102,13.43017 119.224377,22.0593414 C121.315071,24.7219271 123.1379,27.4064271 124.426683,29.4065271 C123.158958,31.3737557 121.37235,34.0059986 119.307769,36.6449843 L119.307769,36.6449843 Z M42.049814,36.6449843 C35.2773815,45.3011271 32.0242554,45.7646986 31.9400212,45.77397 L13.0277509,45.77397 L13.0277509,13.0357129 L31.9383365,13.0357129 C31.9703455,13.0373986 35.1914626,13.43017 41.9655797,22.0584986 C44.0571158,24.72277 45.8791023,27.4064271 47.1670437,29.4065271 C45.9001608,31.3737557 44.1135527,34.0059986 42.049814,36.6449843 L42.049814,36.6449843 Z M180.38517,8.42857143e-05 L154.952327,8.42857143e-05 C148.731629,8.42857143e-05 142.122611,4.55657 134.748746,13.9299843 C133.801111,15.1344271 132.906544,16.3346557 132.079364,17.4885271 C131.251341,16.3346557 130.357616,15.1344271 129.409981,13.9299843 C122.034431,4.55657 115.425413,8.42857143e-05 109.204715,8.42857143e-05 L77.6926878,8.42857143e-05 C71.472832,8.42857143e-05 64.863814,4.55657 57.4891068,13.9299843 C56.5414716,15.1344271 55.6469041,16.3346557 54.8197239,17.4885271 C53.9925437,16.3346557 53.0988185,15.1344271 52.150341,13.9299843 C44.7764761,4.55657 38.1666158,8.42857143e-05 31.9476023,8.42857143e-05 L6.51307523,8.42857143e-05 C2.91627342,8.42857143e-05 8.42342342e-05,2.91805571 8.42342342e-05,6.51789857 L8.42342342e-05,52.2917843 C8.42342342e-05,55.8916271 2.91627342,58.8095986 6.51307523,58.8095986 L31.9476023,58.8095986 C38.1666158,58.8095986 44.7764761,54.2539557 52.150341,44.8805414 C53.0988185,43.6760986 53.9925437,42.4750271 54.8197239,41.3211557 C55.6469041,42.4750271 56.5414716,43.6760986 57.4891068,44.8805414 C64.863814,54.2539557 71.472832,58.8095986 77.6926878,58.8095986 L109.204715,58.8095986 C115.425413,58.8095986 122.034431,54.2539557 129.409981,44.8805414 C130.357616,43.6760986 131.251341,42.4750271 132.079364,41.3211557 C132.906544,42.4750271 133.801111,43.6760986 134.748746,44.8805414 C142.122611,54.2539557 148.731629,58.8095986 154.952327,58.8095986 L180.38517,58.8095986 C183.981972,58.8095986 186.899003,55.8916271 186.899003,52.2917843 L186.899003,6.51789857 C186.899003,2.91805571 183.981972,8.42857143e-05 180.38517,8.42857143e-05 L180.38517,8.42857143e-05 Z" id="Fill-1" fill="#221F20" mask="url(#mask-2)"></path>
            </g>
            <g id="Page-1" transform="translate(5.000000, 42.000000)" fill="#221F20">
                <path d="M186.458649,101.267775 L112.85658,58.7724169 L186.458649,16.2781868 C190.632381,13.8698308 192.060474,8.53422225 189.652118,4.36274651 C187.241506,0.191270761 181.908153,-1.23907841 177.734421,1.17040568 L95.4103813,48.7001868 L13.0863413,1.17153372 C8.91373752,-1.23795038 3.57925704,0.191270761 1.17090098,4.36500258 C0.376763899,5.73782194 0,7.23810932 0,8.71696402 C0,11.7310752 1.56571345,14.6639678 4.3632418,16.2793149 L77.9641823,58.7724169 L4.3632418,101.267775 C1.56571345,102.883122 0,105.814887 0,108.828998 C0,110.310109 0.376763899,111.809268 1.17090098,113.184343 C3.57925704,117.355819 8.91373752,118.78504 13.0863413,116.376684 L95.4103813,68.8457751 L177.734421,116.376684 C181.908153,118.78504 187.241506,117.356947 189.652118,113.184343 C192.061602,109.010612 190.632381,103.676131 186.458649,101.267775 L186.458649,101.267775 Z" id="Fill-1"></path>
            </g>
        </g>
    </g>
</svg>