<svg width="200" height="200" viewBox="0 0 200 200" xmlns="http://www.w3.org/2000/svg" xmlns:xlink="http://www.w3.org/1999/xlink">
  <title>
    Drying7
  </title>
  <defs>
    <path id="a" d="M144.4 144.4V0H0v144.4z"/>
  </defs>
  <g fill="none" fill-rule="evenodd">
    <g transform="translate(28 27)">
      <mask id="b" fill="#fff">
        <use xlink:href="#a"/>
      </mask>
      <path d="M129 41.6c-6-11-15.2-20.2-26.2-26h26v26zm0 87.3h-26.2c11-6 20-15.4 26-26.4v26zM23 72c0-27 22-49 49-49s49 22 49 49-22 49-49 49-49-22-49-49zm-7.5 57v-26.2c6 11 15 20 26 26h-26zm0-113.5h26c-11 6-20 15-26 26v-26zM136.5 0H7.8C3.5 0 0 3.5 0 7.7v129c0 4.2 3.5 7.7 7.7 7.7h129c4.2 0 7.7-3.5 7.7-7.8V7.6c0-4-3.5-7.6-7.8-7.6z" fill="#221F20" mask="url(#b)"/>
    </g>
    <ellipse stroke="#000" fill="#000" cx="97" cy="97" rx="54" ry="51"/>
  </g>
</svg>
