<svg width="200" height="200" viewBox="0 0 200 200" xmlns="http://www.w3.org/2000/svg" xmlns:xlink="http://www.w3.org/1999/xlink">
  <title>
    Drying11
  </title>
  <defs>
    <path id="a" d="M72.2 144.4h72.2V0H0v144.4z"/>
  </defs>
  <g fill="none" fill-rule="evenodd">
    <g transform="translate(27 28)">
      <mask id="b" fill="#fff">
        <use xlink:href="#a"/>
      </mask>
      <path d="M15.5 129H129V15.4H15.4V129zm121 15.4H7.8c-4.2 0-7.7-3.5-7.7-7.8V7.6C0 3.6 3.6 0 7.8 0h129c4.2 0 7.7 3.5 7.7 7.7v129c0 4.2-3.5 7.7-7.8 7.7z" fill="#221F20" mask="url(#b)"/>
    </g>
    <path d="M143.6 93H55.4c-3 0-5.4 3.5-5.4 7.7 0 4.3 2.4 7.8 5.4 7.8h88.2c3 0 5.4-3.5 5.4-7.8 0-4.2-2.4-7.7-5.4-7.7z" fill="#221F20"/>
  </g>
</svg>
