<svg width="200" height="200" viewBox="0 0 200 200" xmlns="http://www.w3.org/2000/svg" xmlns:xlink="http://www.w3.org/1999/xlink">
  <title>
    Drying9
  </title>
  <defs>
    <path id="a" d="M144.4 144.4H0V0h144.4z"/>
  </defs>
  <g transform="translate(27 28)" fill="none" fill-rule="evenodd">
    <mask id="b" fill="#fff">
      <use xlink:href="#a"/>
    </mask>
    <path d="M129 129H15.4V28c11 9 29 18.4 56.7 18.4 27.6 0 45.7-9.3 56.8-18.4v101zm-9.2-113.5l-2.6 2c-12 9-27 13.4-45 13.4s-33-4.7-45-13.5l-2.6-2h95.2zM136.6 0H7.6C3.6 0 0 3.5 0 7.7v129c0 4.2 3.5 7.7 7.7 7.7h129c4.2 0 7.7-3.5 7.7-7.8V7.6c0-4-3.5-7.6-7.8-7.6z" fill="#221F20" mask="url(#b)"/>
  </g>
</svg>
