<?xml version="1.0" encoding="UTF-8"?>
<svg width="200px" height="200px" viewBox="0 0 200 200" version="1.1" xmlns="http://www.w3.org/2000/svg" xmlns:xlink="http://www.w3.org/1999/xlink">
    <!-- Generator: Sketch 44.1 (41455) - http://www.bohemiancoding.com/sketch -->
    <title>Drying9</title>
    <desc>Created with Sketch.</desc>
    <defs>
        <polygon id="path-1" points="144.3517 144.353 0 144.353 0 0.0001 144.3517 0.0001"></polygon>
    </defs>
    <g id="Drying" stroke="none" stroke-width="1" fill="none" fill-rule="evenodd">
        <g id="Drying9">
            <g id="Page-1" transform="translate(27.000000, 28.000000)">
                <mask id="mask-2" fill="white">
                    <use xlink:href="#path-1"></use>
                </mask>
                <g id="Clip-2"></g>
                <path d="M128.8857,128.8871 L15.4667,128.8871 L15.4667,28.0461 C26.5297,37.0851 44.6147,46.4001 72.1757,46.4001 C99.7377,46.4001 117.8227,37.0851 128.8857,28.0461 L128.8857,128.8871 Z M119.7897,15.4671 C118.9687,16.1591 118.0917,16.8571 117.1577,17.5541 C105.2557,26.4321 90.1217,30.9331 72.1757,30.9331 C54.2307,30.9331 39.0967,26.4321 27.1937,17.5541 C26.2607,16.8571 25.3827,16.1591 24.5617,15.4671 L119.7897,15.4671 Z M136.6187,0.0001 L7.7337,0.0001 C3.4617,0.0001 -0.0003,3.4621 -0.0003,7.7341 L-0.0003,136.6201 C-0.0003,140.8911 3.4617,144.3531 7.7337,144.3531 L136.6187,144.3531 C140.8897,144.3531 144.3517,140.8911 144.3517,136.6201 L144.3517,7.7341 C144.3517,3.4621 140.8897,0.0001 136.6187,0.0001 L136.6187,0.0001 Z" id="Fill-1" fill="#221F20" mask="url(#mask-2)"></path>
            </g>
        </g>
    </g>
</svg>