<svg width="200" height="200" viewBox="0 0 200 200" xmlns="http://www.w3.org/2000/svg" xmlns:xlink="http://www.w3.org/1999/xlink">
  <title>
    Drying2
  </title>
  <defs>
    <path id="a" d="M144.4 144.4V0H0v144.4z"/>
  </defs>
  <g transform="translate(27 27)" fill="none" fill-rule="evenodd">
    <mask id="b" fill="#fff">
      <use xlink:href="#a"/>
    </mask>
    <path d="M87.6 62c-5.6 0-10.3 4.4-10.3 10 0 5.7 4.6 10.3 10.3 10.3 5.7.2 10.4-4.3 10.4-10 0-6-4.8-10.3-10.5-10.3zM129 41.5c-6-11-15.2-20.2-26.2-26h26v26zm0 87.3h-26.2c11-6 20-15.2 26-26.2v26zM23 72c0-27 22-49 49-49s49 22 49 49-22 49-49 49-49-22-49-49zm-7.5 57v-26.2c6 11 15 20 26 26h-26zm0-113.5h26c-11 6-20 15-26 26v-26zM136.5 0H7.8C3.5 0 0 3.5 0 7.7v129c0 4.2 3.5 7.7 7.7 7.7h129c4.2 0 7.7-3.5 7.7-7.8V7.6c0-4-3.5-7.6-7.8-7.6zM57 62c-6 0-10.5 4.4-10.5 10 0 5.7 4.6 10.3 10.3 10.3 5.7.2 10.2-4.3 10.2-10 0-6-4.4-10.3-10-10.3z" fill="#221F20" mask="url(#b)"/>
  </g>
</svg>
