<?xml version="1.0" encoding="UTF-8"?>
<svg width="200px" height="200px" viewBox="0 0 200 200" version="1.1" xmlns="http://www.w3.org/2000/svg" xmlns:xlink="http://www.w3.org/1999/xlink">
    <!-- Generator: Sketch 44.1 (41455) - http://www.bohemiancoding.com/sketch -->
    <title>Drying2</title>
    <desc>Created with Sketch.</desc>
    <defs>
        <polygon id="path-1" points="144.352 144.3517 144.352 0 0 0 0 144.3517"></polygon>
    </defs>
    <g id="Drying" stroke="none" stroke-width="1" fill="none" fill-rule="evenodd">
        <g id="Drying2">
            <g id="Page-1" transform="translate(27.000000, 27.000000)">
                <mask id="mask-2" fill="white">
                    <use xlink:href="#path-1"></use>
                </mask>
                <g id="Clip-2"></g>
                <path d="M87.5816,61.8647 C81.8876,61.8647 77.2706,66.4807 77.2706,72.1767 C77.2706,77.8697 81.8876,82.4857 87.5816,82.4857 C93.2766,82.4857 97.8926,77.8697 97.8926,72.1767 C97.8926,66.4807 93.2766,61.8647 87.5816,61.8647 L87.5816,61.8647 Z M128.8856,41.5907 C122.9086,30.5517 113.8006,21.4437 102.7616,15.4657 L128.8856,15.4657 L128.8856,41.5907 Z M128.8856,128.8857 L102.7616,128.8857 C113.8016,122.9067 122.9086,113.8017 128.8856,102.7607 L128.8856,128.8857 Z M23.1996,72.1767 C23.1996,45.1697 45.1706,23.1977 72.1766,23.1977 C99.1826,23.1977 121.1536,45.1697 121.1536,72.1767 C121.1536,99.1797 99.1826,121.1517 72.1766,121.1517 C45.1706,121.1517 23.1996,99.1797 23.1996,72.1767 L23.1996,72.1767 Z M15.4666,128.8857 L15.4666,102.7607 C21.4446,113.8017 30.5506,122.9067 41.5906,128.8857 L15.4666,128.8857 Z M15.4666,15.4657 L41.5906,15.4657 C30.5516,21.4437 21.4446,30.5517 15.4666,41.5907 L15.4666,15.4657 Z M136.6196,-0.0003 L7.7336,-0.0003 C3.4626,-0.0003 -0.0004,3.4617 -0.0004,7.7327 L-0.0004,136.6187 C-0.0004,140.8887 3.4626,144.3517 7.7336,144.3517 L136.6196,144.3517 C140.8906,144.3517 144.3526,140.8887 144.3526,136.6187 L144.3526,7.7327 C144.3526,3.4617 140.8906,-0.0003 136.6196,-0.0003 L136.6196,-0.0003 Z M56.7716,61.8647 C51.0776,61.8647 46.4606,66.4807 46.4606,72.1767 C46.4606,77.8697 51.0776,82.4857 56.7716,82.4857 C62.4666,82.4857 67.0826,77.8697 67.0826,72.1767 C67.0826,66.4807 62.4666,61.8647 56.7716,61.8647 L56.7716,61.8647 Z" id="Fill-1" fill="#221F20" mask="url(#mask-2)"></path>
            </g>
        </g>
    </g>
</svg>