<svg width="200" height="200" viewBox="0 0 200 200" xmlns="http://www.w3.org/2000/svg" xmlns:xlink="http://www.w3.org/1999/xlink">
  <title>
    Drying14
  </title>
  <defs>
    <path id="a" d="M0 58.8h187V0H0z"/>
  </defs>
  <g fill="none" fill-rule="evenodd">
    <g transform="translate(7 71)">
      <mask id="b" fill="#fff">
        <use xlink:href="#a"/>
      </mask>
      <path d="M174 45.8h-19s-3.3-.4-10-9c-2.2-2.7-4-5.4-5.3-7.4 1.3-2 3-4.6 5.2-7.2 6.4-8.8 10-9.2 10-9.2h19v32.8zm-54.7-9.2c-6.8 8.7-10 9.2-10 9.2H77.6s-3.3-.4-10-9c-2-2.7-4-5.4-5.2-7.4 1.3-2 3-4.7 5.2-7.3 6.7-8.3 10-9 10-9H109s3.4.7 10 9l5.3 7.7c-1.2 2-3 4.6-5 7.2zm-77.3 0c-6.7 8.7-10 9.2-10 9.2H13V13h19s3.2.4 10 9c2 2.7 4 5.4 5.2 7.4-1.3 2-3 4.6-5.2 7.2zM180.4 0H155c-6.3 0-13 4.6-20.3 14-1 1-1.8 2.3-2.6 3.5-.4-1.2-1.3-2.4-2.3-3.6-7.4-9.7-14-14-20.2-14H77.7C71.5 0 65 4.3 57.5 14c-1 1-2 2.3-2.7 3.5L52.2 14C44.8 4.5 38.2 0 32 0H6.4C3 0 0 3 0 6.5v45.8c0 3.6 3 6.5 6.5 6.5H32c6.2 0 12.8-4.5 20.2-14 1-1 1.8-2.3 2.6-3.5l2.7 3.6c7.4 9 14 13.5 20.2 13.5h31.5c6.2 0 12.8-4.5 20.2-14 1-1 2-2.3 2.7-3.5l3 3.7c7.4 9.3 14 13.8 20.3 13.8h25.5c3.6 0 6.5-3 6.5-6.5V6.6c0-3.6-3-6.5-6.6-6.5z" fill="#221F20" mask="url(#b)"/>
    </g>
    <path d="M191.5 143.3L118 100.8l73.5-42.5c4-2.4 5.6-7.8 3.2-12-2.5-4-7.8-5.5-12-3l-82.3 47.4L18 43.2c-4-2.4-9.4-1-11.8 3.2-.8 1.3-1.2 2.8-1.2 4.3 0 3 1.6 6 4.4 7.6L83 100.8 9.4 143.3C6.6 145 5 147.8 5 150.8c0 1.5.4 3 1.2 4.4 2.4 4.2 7.7 5.6 12 3.2l82.2-47.6 82.3 47.6c4.2 2.4 9.5 1 12-3.2 2.4-4.2 1-9.5-3.2-12z" fill="#221F20"/>
  </g>
</svg>
