<?xml version="1.0" encoding="UTF-8"?>
<svg width="200px" height="200px" viewBox="0 0 200 200" version="1.1" xmlns="http://www.w3.org/2000/svg" xmlns:xlink="http://www.w3.org/1999/xlink">
    <!-- Generator: Sketch 44.1 (41455) - http://www.bohemiancoding.com/sketch -->
    <title>Drying13</title>
    <desc>Created with Sketch.</desc>
    <defs></defs>
    <g id="Drying" stroke="none" stroke-width="1" fill="none" fill-rule="evenodd">
        <g id="Drying13" fill="#221F20">
            <g id="Page-1" transform="translate(28.000000, 15.000000)">
                <path d="M136.6191,12.4062 L128.5571,12.4062 C128.3201,13.0112 128.0381,13.6042 127.7051,14.1792 L119.8001,27.8712 L128.8861,27.8712 L128.8861,141.2912 L119.7991,141.2912 L127.7051,154.9842 C128.0371,155.5572 128.3201,156.1512 128.5571,156.7582 L136.6191,156.7582 C140.8901,156.7582 144.3511,153.2962 144.3511,149.0242 L144.3511,20.1382 C144.3511,15.8682 140.8901,12.4062 136.6191,12.4062 L136.6191,12.4062 Z M81.1051,84.5822 L123.2411,11.6002 C125.3771,7.9022 124.1091,3.1722 120.4101,1.0372 C116.7121,-1.0988 111.9821,0.1702 109.8471,3.8672 L72.1761,69.1162 L34.5051,3.8672 C32.3691,0.1702 27.6401,-1.0978 23.9411,1.0372 C20.2421,3.1722 18.9741,7.9022 21.1111,11.6002 L63.2461,84.5822 L21.1111,157.5612 C18.9751,161.2602 20.2431,165.9902 23.9411,168.1252 C25.1601,168.8282 26.4891,169.1622 27.8021,169.1622 C30.4731,169.1622 33.0731,167.7762 34.5061,165.2952 L72.1761,100.0492 L109.8471,165.2952 C111.2781,167.7762 113.8781,169.1622 116.5501,169.1622 C117.8621,169.1622 119.1921,168.8282 120.4101,168.1252 C124.1081,165.9902 125.3761,161.2602 123.2401,157.5612 L81.1051,84.5822 Z M90.0351,27.8712 L98.9651,12.4062 L45.3871,12.4062 L54.3161,27.8712 L90.0351,27.8712 Z M15.4671,141.2912 L15.4671,27.8712 L24.5521,27.8712 L16.6461,14.1782 C16.3151,13.6042 16.0311,13.0112 15.7941,12.4062 L7.7331,12.4062 C3.4621,12.4062 0.0001,15.8682 0.0001,20.1382 L0.0001,149.0242 C0.0001,153.2962 3.4621,156.7582 7.7331,156.7582 L15.7951,156.7582 C16.0311,156.1512 16.3151,155.5572 16.6461,154.9842 L24.5521,141.2912 L15.4671,141.2912 Z M54.3171,141.2912 L45.3881,156.7582 L98.9641,156.7582 L90.0341,141.2912 L54.3171,141.2912 Z" id="Fill-1"></path>
            </g>
        </g>
    </g>
</svg>