<?xml version="1.0" encoding="UTF-8"?>
<svg width="200px" height="200px" viewBox="0 0 200 200" version="1.1" xmlns="http://www.w3.org/2000/svg" xmlns:xlink="http://www.w3.org/1999/xlink">
    <!-- Generator: Sketch 44.1 (41455) - http://www.bohemiancoding.com/sketch -->
    <title>Drying7</title>
    <desc>Created with Sketch.</desc>
    <defs>
        <polygon id="path-1" points="144.352 144.3517 144.352 0 0.0003 0 0.0003 144.3517"></polygon>
    </defs>
    <g id="Drying" stroke="none" stroke-width="1" fill="none" fill-rule="evenodd">
        <g id="Drying7">
            <g id="Page-1" transform="translate(28.000000, 27.000000)">
                <mask id="mask-2" fill="white">
                    <use xlink:href="#path-1"></use>
                </mask>
                <g id="Clip-2"></g>
                <path d="M128.8863,41.5907 C122.9073,30.5517 113.8013,21.4437 102.7613,15.4657 L128.8863,15.4657 L128.8863,41.5907 Z M128.8863,128.8857 L102.7613,128.8857 C113.8013,122.9077 122.9073,113.8017 128.8863,102.7617 L128.8863,128.8857 Z M23.1993,72.1767 C23.1993,45.1697 45.1703,23.1977 72.1763,23.1977 C99.1813,23.1977 121.1533,45.1697 121.1533,72.1767 C121.1533,99.1807 99.1813,121.1517 72.1763,121.1517 C45.1703,121.1517 23.1993,99.1807 23.1993,72.1767 L23.1993,72.1767 Z M15.4663,128.8857 L15.4663,102.7617 C21.4453,113.8017 30.5513,122.9077 41.5913,128.8857 L15.4663,128.8857 Z M15.4663,15.4657 L41.5913,15.4657 C30.5513,21.4437 21.4453,30.5517 15.4663,41.5907 L15.4663,15.4657 Z M136.6193,-0.0003 L7.7333,-0.0003 C3.4623,-0.0003 0.0003,3.4617 0.0003,7.7327 L0.0003,136.6187 C0.0003,140.8887 3.4623,144.3517 7.7333,144.3517 L136.6193,144.3517 C140.8903,144.3517 144.3523,140.8887 144.3523,136.6187 L144.3523,7.7327 C144.3523,3.4617 140.8903,-0.0003 136.6193,-0.0003 L136.6193,-0.0003 Z" id="Fill-1" fill="#221F20" mask="url(#mask-2)"></path>
            </g>
            <ellipse id="Fill" stroke="#221F20" fill="#221F20" cx="97.5" cy="98" rx="54.5" ry="52"></ellipse>
        </g>
    </g>
</svg>