<svg width="200" height="200" viewBox="0 0 200 200" xmlns="http://www.w3.org/2000/svg">
  <title>
    Drying13
  </title>
  <path d="M164.6 27.4h-8l-1 1.8L148 43h9v113.3h-9l8 13.7.8 1.8h8c4.3 0 7.8-3.5 7.8-7.8V35c0-4-3.5-7.6-7.8-7.6zM109 99.6l42.2-73c2.2-3.7 1-8.4-2.8-10.6-3.7-2-8.4-.8-10.6 3l-37.6 65-37.7-65c-2-3.8-7-5-10.6-3-4 2.2-5 7-3 10.6l42 73-42 73c-2 3.7-1 8.4 2.7 10.5 1.2 1 2.5 1.4 3.8 1.4 2.7 0 5.3-1.4 6.7-4L100 115l37.6 65.4c1.5 2.5 4 4 6.8 4 1.3 0 2.6-.5 3.8-1.2 3.7-2 5-6.7 2.8-10.4l-42-73zm9-56.7l9-15.8H73.4l9 15.5H118zM43.5 156V43h9l-8-13.8-.7-1.8h-8C31.4 27.4 28 31 28 35v129c0 4.3 3.5 7.8 7.7 7.8h8l1-1.8 8-13.7h-9.2zm38.8 0l-9 15.5H127l-9-15.5H82.3z" fill="#221F20" fill-rule="evenodd"/>
</svg>
