<svg width="200" height="200" viewBox="0 0 200 200" xmlns="http://www.w3.org/2000/svg" xmlns:xlink="http://www.w3.org/1999/xlink">
  <title>
    Drying12
  </title>
  <defs>
    <path id="a" d="M0 144.4h144.4V0H0z"/>
  </defs>
  <g transform="translate(28 28)" fill="none" fill-rule="evenodd">
    <mask id="b" fill="#fff">
      <use xlink:href="#a"/>
    </mask>
    <path d="M129 129H15.4v-10L119.2 15.5h9.7V129zM15.4 67.5l52-52h29.8L15.5 97.2V67.6zm0-52h30.3L15.5 45.7V15.5zM136.4 0H8C3.5 0 0 3.5 0 7.7v129c0 4.2 3.5 7.7 7.7 7.7h129c4.2 0 7.7-3.5 7.7-7.8V7.6c0-4-3.5-7.6-7.8-7.6z" fill="#221F20" mask="url(#b)"/>
  </g>
</svg>
